<svg id="Layer_1" data-name="Layer 1" xmlns="http://www.w3.org/2000/svg" xmlns:xlink="http://www.w3.org/1999/xlink" viewBox="0 0 400 300" width="406" height="306" class="illustration styles_illustrationTablet__1DWOa"><defs><linearGradient id="linear-gradient" x1="230.86" y1="144.46" x2="242.92" y2="127.61" gradientUnits="userSpaceOnUse"><stop offset="0" stop-color="#aa4200" stop-opacity="0"></stop><stop offset="0.98" stop-color="#aa003d"></stop></linearGradient><linearGradient id="linear-gradient-2" x1="298.86" y1="184.08" x2="309.1" y2="169.77" xlink:href="#linear-gradient"></linearGradient><linearGradient id="linear-gradient-3" x1="103.11" y1="235.42" x2="128.45" y2="200.02" xlink:href="#linear-gradient"></linearGradient></defs><title>81-90</title><path d="M41.24,204.26l126.92,73.28L357.87,168.61,230.79,95.24Z" fill="#e2a1de"></path><path d="M236.32,118.42C227.46,124,219,128.94,210.6,134c8.65,4.77,20.64,11.54,26.53,15.19,5.76-3.1,25.43-14.19,32.49-20Z" opacity="0.32" fill="url(#linear-gradient)"></path><path d="M303.5,162c-7.52,4.7-14.69,8.93-21.84,13.19,7.35,4.05,17.52,9.8,22.53,12.9,4.89-2.64,21.6-12.05,27.58-17Z" opacity="0.32" fill="url(#linear-gradient-2)"></path><path d="M125.3,251.45c12.52-6.75,56.39-34.49,68.82-41.4L106,178.36l-56.5,30.22C62.56,215.45,107.17,240.24,125.3,251.45Z" opacity="0.32" fill="url(#linear-gradient-3)"></path><path d="M83.14,179.55l-12.64-85a5.55,5.55,0,0,1,2.73-5.63L171,33a5.55,5.55,0,0,1,8.26,4.15l10.42,86.34A5.55,5.55,0,0,1,187,129l-95.59,54.6A5.55,5.55,0,0,1,83.14,179.55Z" fill="#053855"></path><polygon points="175.39 41.8 75.46 99.14 86.32 172.22 184.74 117.25 175.39 41.8" fill="#6f79e9"></polygon><polyline points="262.37 168.04 262.37 171.31 260.71 173.35" fill="#adcee1"></polyline><path d="M196.48,128.12l64,39.67a4,4,0,0,1-.14,6.83l-97.13,54.94a8.89,8.89,0,0,1-8.89-.07L90.62,192c-4.63-3.8-4.28-11,0-11.27L187.23,128A9,9,0,0,1,196.48,128.12Z" fill="#88d3d8"></path><path d="M196.48,125.39l64,39.67a4,4,0,0,1-.14,6.83l-97.13,54.94a8.89,8.89,0,0,1-8.89-.07L90.62,189.29a4.94,4.94,0,0,1,0-8.53l96.57-55.53A9,9,0,0,1,196.48,125.39Z" fill="#fff"></path><path d="M200.41,134.48l23.4,14.58a2.82,2.82,0,0,1-.09,4.85l-84,47.89a8.26,8.26,0,0,1-8.26,0c-5.4-3.15-14.7-8.82-20.39-12.3a3.43,3.43,0,0,1,.07-5.9c17-9.88,72.42-42.11,84.55-49.15A4.57,4.57,0,0,1,200.41,134.48Z" fill="#6f79e9"></path><path d="M199.16,174.05l-29.35,16.5a2.93,2.93,0,0,0,0,5.09L187,205.74a3.9,3.9,0,0,0,3.9,0l30-17.12a2.45,2.45,0,0,0,0-4.26L203,174.07A3.9,3.9,0,0,0,199.16,174.05Z" fill="#6f79e9"></path><path d="M200.41,134.48l23.4,14.58a2.82,2.82,0,0,1-.09,4.85l-84,47.89a8.26,8.26,0,0,1-8.26,0c-5.4-3.15-14.7-8.82-20.39-12.3a3.43,3.43,0,0,1,.07-5.9c17-9.88,72.42-42.11,84.55-49.15A4.57,4.57,0,0,1,200.41,134.48Z" fill="#053855" opacity="0.1"></path><path d="M199.16,174.05l-29.35,16.5a2.93,2.93,0,0,0,0,5.09L187,205.74a3.9,3.9,0,0,0,3.9,0l30-17.12a2.45,2.45,0,0,0,0-4.26L203,174.07A3.9,3.9,0,0,0,199.16,174.05Z" fill="#053855" opacity="0.1"></path><ellipse cx="319.34" cy="163.83" rx="16.13" ry="11.36" fill="#6f79e9"></ellipse><ellipse cx="319.35" cy="157.12" rx="12.08" ry="4.95" fill="#974c26"></ellipse><path d="M320.15,157.24c1-1.33,1.9-2.73,2.9-4.3,1.28-2,2.48-4.05,3.57-6.16a40.7,40.7,0,0,0,2.61-5.84,48.74,48.74,0,0,0,1.91-6.69c.12-.6.23-1.2.33-1.8,0-.28.05-.25.05-.21s0-.19,0-.52c.11-1.22.19-2.44.2-3.67a30.84,30.84,0,0,0-2.4-12.35,53.25,53.25,0,0,0-8.62,21.09q-.13.68-.24,1.36s-.12.83-.17,1.16l-.13,1.14q-.09.86-.16,1.73c-.18,2.22-.26,4.46-.25,6.69C319.8,151.67,319.93,154.46,320.15,157.24Zm5.14-33.34q.44-.5.9-1h0a2,2,0,0,0-.06.87A2.77,2.77,0,0,0,325.29,123.9Z" fill="#999a1c"></path><path d="M320.46,157.44c.08-1.63.12-3.33.12-5.18,0-2.37-.11-4.75-.33-7.11a40.7,40.7,0,0,0-1-6.32,48.74,48.74,0,0,0-2-6.66c-.22-.57-.45-1.13-.69-1.69-.11-.26-.09-.24-.07-.2l-.25-.46c-.57-1.08-1.16-2.16-1.81-3.19a30.84,30.84,0,0,0-8.69-9.09,53.25,53.25,0,0,0,4.14,22.4q.26.64.53,1.27l.48,1.07.51,1q.39.78.8,1.54c1.05,2,2.19,3.89,3.4,5.76C317.15,152.94,318.77,155.22,320.46,157.44Zm-13.7-30.82q.1-.66.24-1.31h0a2,2,0,0,0,.42.76A2.77,2.77,0,0,0,306.76,126.62Z" fill="#999a1c"></path><path d="M320.53,158.29c-.48-.91-1-1.84-1.61-2.84-.77-1.28-1.59-2.53-2.47-3.73a25.6,25.6,0,0,0-2.56-3.1,30.65,30.65,0,0,0-3.24-2.95l-.92-.69c-.14-.1-.12-.1-.1-.09l-.28-.17c-.66-.4-1.32-.79-2-1.14a19.39,19.39,0,0,0-7.63-2.1,33.49,33.49,0,0,0,9.47,10.75l.7.51.6.42.61.39.93.57q1.81,1.08,3.7,2C317.3,156.94,318.9,157.64,320.53,158.29Zm-17.35-12.21q-.16-.39-.29-.78h0a1.26,1.26,0,0,0,.47.27A1.74,1.74,0,0,0,303.19,146.08Z" fill="#999a1c"></path><path d="M320.15,157.24c1-1.33,1.9-2.73,2.9-4.3,1.28-2,2.48-4.05,3.57-6.16a40.7,40.7,0,0,0,2.61-5.84,48.74,48.74,0,0,0,1.91-6.69c.12-.6.23-1.2.33-1.8,0-.28.05-.25.05-.21s0-.19,0-.52c.11-1.22.19-2.44.2-3.67a30.84,30.84,0,0,0-2.4-12.35,53.25,53.25,0,0,0-8.62,21.09q-.13.68-.24,1.36s-.12.83-.17,1.16l-.13,1.14q-.09.86-.16,1.73c-.18,2.22-.26,4.46-.25,6.69C319.8,151.67,319.93,154.46,320.15,157.24Zm5.14-33.34q.44-.5.9-1h0a2,2,0,0,0-.06.87A2.77,2.77,0,0,0,325.29,123.9Z" fill="#999a1c"></path><path d="M320.46,157.44c.08-1.63.12-3.33.12-5.18,0-2.37-.11-4.75-.33-7.11a40.7,40.7,0,0,0-1-6.32,48.74,48.74,0,0,0-2-6.66c-.22-.57-.45-1.13-.69-1.69-.11-.26-.09-.24-.07-.2l-.25-.46c-.57-1.08-1.16-2.16-1.81-3.19a30.84,30.84,0,0,0-8.69-9.09,53.25,53.25,0,0,0,4.14,22.4q.26.64.53,1.27l.48,1.07.51,1q.39.78.8,1.54c1.05,2,2.19,3.89,3.4,5.76C317.15,152.94,318.77,155.22,320.46,157.44Zm-13.7-30.82q.1-.66.24-1.31h0a2,2,0,0,0,.42.76A2.77,2.77,0,0,0,306.76,126.62Z" fill="#999a1c"></path><path d="M320.53,158.29c-.48-.91-1-1.84-1.61-2.84-.77-1.28-1.59-2.53-2.47-3.73a25.6,25.6,0,0,0-2.56-3.1,30.65,30.65,0,0,0-3.24-2.95l-.92-.69c-.14-.1-.12-.1-.1-.09l-.28-.17c-.66-.4-1.32-.79-2-1.14a19.39,19.39,0,0,0-7.63-2.1,33.49,33.49,0,0,0,9.47,10.75l.7.51.6.42.61.39.93.57q1.81,1.08,3.7,2C317.3,156.94,318.9,157.64,320.53,158.29Zm-17.35-12.21q-.16-.39-.29-.78h0a1.26,1.26,0,0,0,.47.27A1.74,1.74,0,0,0,303.19,146.08Z" fill="#999a1c"></path><path d="M60.78,116,38.14,128.82V154c3.45-1.85,16.56-9.28,22.65-12.74Z" fill="#fe9881"></path><path d="M60.78,147.6,38.14,160.45v25.13c3.45-1.85,16.56-9.28,22.65-12.74Z" fill="#fe9881"></path><path d="M223.48,123.42l26-15.44a3.42,3.42,0,0,1,3.49,0l20.55,12.2a3.42,3.42,0,0,1-.06,5.91L248.6,140.18a3.42,3.42,0,0,1-3.36,0L223.53,128A2.63,2.63,0,0,1,223.48,123.42Z" fill="#146666"></path><polygon points="222.19 125.65 222.19 121.4 225.12 122.32 224.26 125.74 222.19 125.65" fill="#146666"></polygon><polygon points="275.16 122.84 275.16 118.86 272.69 120.02 273.85 122.32 275.16 122.84" fill="#146666"></polygon><path d="M223.48,119.14l26-15.44a3.42,3.42,0,0,1,3.49,0l20.55,12.2a3.42,3.42,0,0,1-.06,5.91L248.6,135.9a3.42,3.42,0,0,1-3.36,0L223.53,123.7A2.63,2.63,0,0,1,223.48,119.14Z" fill="#2c9390"></path><polygon points="245.69 113.76 248.62 112.51 254.81 124.4 251.88 125.65 245.69 113.76" fill="#fff"></polygon><path d="M260,116.73a9.75,9.75,0,0,1,3.89.73c1,.46,1.54,1,1.54,1.73s-.54,1.27-1.64,1.73a11.49,11.49,0,0,1-7.88-.07c-1-.46-1.53-1-1.54-1.73s.53-1.27,1.63-1.74A9.78,9.78,0,0,1,260,116.73Zm2.24,2.46c0-.28-.24-.52-.71-.74a4.06,4.06,0,0,0-1.65-.34,4,4,0,0,0-1.65.28c-.47.2-.71.44-.7.71s.24.52.71.74a4.13,4.13,0,0,0,1.65.34,4,4,0,0,0,1.65-.28c.47-.2.7-.44.7-.71" fill="#fff"></path><path d="M246.21,119c0,.69-.55,1.27-1.64,1.74a11.48,11.48,0,0,1-7.89-.08c-1-.47-1.53-1-1.54-1.73s.55-1.27,1.64-1.73a11.44,11.44,0,0,1,7.88.07C245.69,117.77,246.2,118.35,246.21,119Zm-7.19.66a4.13,4.13,0,0,0,1.65.34,4.06,4.06,0,0,0,1.65-.28c.47-.2.7-.44.7-.71s-.24-.52-.71-.74a4.53,4.53,0,0,0-3.3-.05c-.47.2-.7.44-.7.71s.24.52.71.74" fill="#fff"></path><path d="M231.92,120.36l26-15.44a3.42,3.42,0,0,1,3.49,0l20.55,12.2a3.42,3.42,0,0,1-.06,5.91L257,137.12a3.42,3.42,0,0,1-3.36,0L232,124.91A2.63,2.63,0,0,1,231.92,120.36Z" fill="#146666"></path><polygon points="230.63 122.59 230.64 118.34 233.57 119.26 232.71 122.68 230.63 122.59" fill="#146666"></polygon><polygon points="283.61 119.78 283.61 115.8 281.13 116.96 282.3 119.26 283.61 119.78" fill="#146666"></polygon><path d="M231.92,116.08l26-15.44a3.42,3.42,0,0,1,3.49,0l20.55,12.2a3.42,3.42,0,0,1-.06,5.91L257,132.84a3.42,3.42,0,0,1-3.36,0L232,120.64A2.63,2.63,0,0,1,231.92,116.08Z" fill="#2c9390"></path><path d="M248.17,116.8a7.37,7.37,0,0,1,3,.59c.85.39,1.26.84,1.24,1.35s-.5,1-1.42,1.36l-1.83.78,2.93,1.33-1.91.81L241.29,119l3.74-1.59A7.86,7.86,0,0,1,248.17,116.8Zm1.66,2c0-.22-.17-.41-.53-.57a3.17,3.17,0,0,0-1.29-.25,3.33,3.33,0,0,0-1.32.24l-1.77.75,2.55,1.16,1.77-.75c.38-.16.57-.35.58-.57" fill="#fff"></path><polygon points="257.54 112.06 266.47 116.13 264.56 116.93 260.93 115.28 257.13 116.89 260.76 118.55 258.85 119.36 249.92 115.3 251.83 114.49 255.4 116.11 259.2 114.5 255.63 112.87 257.54 112.06" fill="#fff"></polygon><path d="M266.69,108.94a7.37,7.37,0,0,1,3,.59c.85.39,1.26.84,1.24,1.35s-.5,1-1.42,1.36l-1.83.78,2.93,1.33-1.91.81-8.93-4.06,3.74-1.59A7.86,7.86,0,0,1,266.69,108.94Zm1.66,2c0-.22-.17-.41-.53-.57a3.17,3.17,0,0,0-1.29-.25,3.33,3.33,0,0,0-1.32.24l-1.77.75,2.55,1.16,1.77-.75c.38-.16.57-.35.58-.57" fill="#fff"></path><path d="M46.79,131.65a1.53,1.53,0,0,1,.72,0,2.56,2.56,0,0,1,.5.24,1.2,1.2,0,0,1,.31.27l.1.13L47.58,134l-.07-.1a1.24,1.24,0,0,0-.2-.19,1.08,1.08,0,0,0-.34-.19,1.25,1.25,0,0,0-.49,0,1.58,1.58,0,0,0-.61.19,3.56,3.56,0,0,0-1.44,1.57,4.86,4.86,0,0,0-.58,2.29,2.15,2.15,0,0,0,.58,1.7,1.21,1.21,0,0,0,1.45.09,2.78,2.78,0,0,0,.64-.45,3.78,3.78,0,0,0,.51-.56q.2-.28.36-.54a3.36,3.36,0,0,0,.22-.43l.07-.16.8.79-.1.24q-.07.15-.31.57a7.29,7.29,0,0,1-.52.78,5.83,5.83,0,0,1-.73.77,4,4,0,0,1-.93.64,2,2,0,0,1-2.38-.14,3.23,3.23,0,0,1-1-2.62,7.57,7.57,0,0,1,1-3.61A6,6,0,0,1,45.86,132,2.71,2.71,0,0,1,46.79,131.65Z"></path><path d="M50.55,137.71v-2.14l-1.5.75v-1.56l1.49-.77v-2.14l1-.53v2.16l1.5-.77v1.6l-1.5.75v2.16Z"></path><path d="M55.17,135.44v-2.2l-1.5.75v-1.61l1.49-.77v-2.2l1-.53v2.21l1.5-.77V132l-1.5.75v2.21Z"></path><path d="M46.44,165.86a1,1,0,0,1,.58.05,2,2,0,0,1,.4.24,1.07,1.07,0,0,1,.25.26l.08.13-.68,1.59L47,168a1.14,1.14,0,0,0-.16-.19.86.86,0,0,0-.28-.19.84.84,0,0,0-.39,0,1.11,1.11,0,0,0-.5.18,3.26,3.26,0,0,0-1.17,1.52,5.59,5.59,0,0,0-.47,2.25,2.44,2.44,0,0,0,.47,1.68.84.84,0,0,0,1.16.1,2.26,2.26,0,0,0,.52-.43,3.54,3.54,0,0,0,.41-.55q.16-.27.29-.52a3.61,3.61,0,0,0,.18-.42l.06-.16.64.78-.09.24q-.06.15-.25.56a7.46,7.46,0,0,1-.42.76,5.41,5.41,0,0,1-.59.75,3.24,3.24,0,0,1-.75.62,1.41,1.41,0,0,1-1.91-.16,3.64,3.64,0,0,1-.78-2.59,8.64,8.64,0,0,1,.78-3.55,5.51,5.51,0,0,1,1.93-2.5A1.93,1.93,0,0,1,46.44,165.86Z"></path><path d="M50.54,168.7a1.14,1.14,0,0,0-.61-.07,4,4,0,0,1-.72,0,.78.78,0,0,1-.61-.42,2.36,2.36,0,0,1-.25-1.24,5,5,0,0,1,.49-2.09,3.55,3.55,0,0,1,1.27-1.55,1.75,1.75,0,0,1,.59-.25,1,1,0,0,1,.47,0,1.19,1.19,0,0,1,.32.14.63.63,0,0,1,.19.18l.06.08-.65,1.6-.11-.14a.66.66,0,0,0-.31-.14.63.63,0,0,0-.49.1,1.36,1.36,0,0,0-.49.58,1.8,1.8,0,0,0-.19.78q0,.44.25.54a1.2,1.2,0,0,0,.61.07,4.3,4.3,0,0,1,.72,0,.78.78,0,0,1,.61.43,2.5,2.5,0,0,1,.24,1.28,5.38,5.38,0,0,1-.52,2.29A3.48,3.48,0,0,1,50,172.44a1.77,1.77,0,0,1-.67.24,1.08,1.08,0,0,1-.53,0,1.6,1.6,0,0,1-.37-.2.94.94,0,0,1-.23-.22l-.08-.1.65-1.49.14.17a.89.89,0,0,0,1,.06,1.55,1.55,0,0,0,.6-.67,2.13,2.13,0,0,0,.22-.93Q50.79,168.81,50.54,168.7Z"></path><path d="M54.79,166.13a1.11,1.11,0,0,0-.61-.09,3.9,3.9,0,0,1-.72,0,.79.79,0,0,1-.61-.44,2.52,2.52,0,0,1-.24-1.28,5.18,5.18,0,0,1,.5-2.14,3.55,3.55,0,0,1,1.27-1.57,1.69,1.69,0,0,1,.59-.25,1,1,0,0,1,.47,0,1.19,1.19,0,0,1,.32.15.65.65,0,0,1,.19.19l.06.09-.65,1.63-.11-.14a.66.66,0,0,0-.31-.14.61.61,0,0,0-.49.1,1.36,1.36,0,0,0-.49.59,1.88,1.88,0,0,0-.19.79q0,.45.25.56a1.17,1.17,0,0,0,.61.08,4.16,4.16,0,0,1,.72,0,.79.79,0,0,1,.61.45,2.66,2.66,0,0,1,.24,1.32,5.63,5.63,0,0,1-.52,2.35,3.48,3.48,0,0,1-1.39,1.6,1.71,1.71,0,0,1-.67.24,1.05,1.05,0,0,1-.53-.05,1.61,1.61,0,0,1-.36-.21,1,1,0,0,1-.23-.23l-.08-.11.65-1.52.13.18a.81.81,0,0,0,.39.19.79.79,0,0,0,.63-.11,1.55,1.55,0,0,0,.6-.68,2.23,2.23,0,0,0,.22-1Q55,166.25,54.79,166.13Z"></path><polygon points="80.61 101.77 83.72 122.71 103.56 110.88 100.49 90.2 80.61 101.77" fill="#fff"></polygon><polygon points="84.61 126.54 89.99 162.74 109.81 150.76 104.49 114.97 84.61 126.54" fill="#fff"></polygon><ellipse cx="142.46" cy="86.51" rx="19.92" ry="13.98" transform="translate(44.56 221.39) rotate(-85.29)" fill="#fff"></ellipse><path d="M125.55,84.75a1.08,1.08,0,0,1,.11-.21,1.58,1.58,0,0,1-.49-1.28,1.12,1.12,0,0,1,.44-.77.82.82,0,0,1,.78-1.34c1.19.24,2,1.8,2.62,2.73.47.69.92,1.39,1.33,2.11.07-1,.22-2.07.3-3s1.58-1,1.58,0a14.7,14.7,0,0,0,.47,4.61,1.48,1.48,0,0,1,.42.31,37.57,37.57,0,0,0,16.15,10,1.48,1.48,0,0,1-.16,2.85,1.45,1.45,0,0,1-1,1.3,1.65,1.65,0,0,1-.78,1.1l1,.45c1.69.71.95,3.5-.77,2.79a41.38,41.38,0,0,1-16.46-12.42c-.5-.48-1-1-1.48-1.45-.76-.77-4.43-4.46-3.52-6C125.76,85.88,125.28,85.47,125.55,84.75Z" fill="#fbb5ad"></path><path d="M151,67.59c1.73.69,3.06,4.4,2.91,5.19l-1.35-.69-.24-.27A16.35,16.35,0,0,0,151,67.59Z" fill="#fbb5ad"></path><path d="M150.77,70.62a1,1,0,0,1,.3-.15l.12-.1c.67-.52,1.72.15,2.32.49a12.91,12.91,0,0,1,2.2,1.47,3.86,3.86,0,0,1,.65,1.41c.25.62.52,1.23.8,1.83a33.77,33.77,0,0,0,2,3.64,34.65,34.65,0,0,0,5.14,6.28c.91.88-.48,2.25-1.39,1.38l-.65-.65a.84.84,0,0,1-.92,0,3.7,3.7,0,0,1-.45-.36l-.21-.18a1,1,0,0,1-1.58.34l-.67-.69a.86.86,0,0,1-.48-.44s-.1,1.34-.13,1.29c-1.07-1.13-2.33-4.24-3.39-6.09a.4.4,0,0,0-.07-.25c-.83-1.33-.72-2.13-.82-3.65a14.38,14.38,0,0,0-.23-2.62L151.6,72.2c-.42-.32-.87-.8-.79-1.28A1,1,0,0,1,150.77,70.62Z" fill="#fbb5ad"></path><path d="M144.3,95.14c6.19,1.82,7.24,1.12,10.18,1s6-4.2,6-4.2.74-9.17,6.2-2c4.08,5.36,5.64,20.88,6.17,28.4-2,1.61-4.73,2.22-7.27,2.6a31.2,31.2,0,0,1-5.07.42,7.55,7.55,0,0,1-3-.66l-2.9-13.46a20.84,20.84,0,0,1-13.1-3.75Z" fill="#fe9881"></path><path d="M157.58,84.12s-4,7.63-.05,9.76,7-1.41,7.35-2.33S165.14,83.56,157.58,84.12Z" fill="#fbb5ad"></path><path d="M157.28,83a8.25,8.25,0,0,1,6.84-1,10,10,0,0,1,5.29,2.78,3.39,3.39,0,0,1,1.72-.58,3.52,3.52,0,0,1,3.52,2.18,3,3,0,0,1-1.2,3.58,3.85,3.85,0,0,1-2.91.27l0,.18c-.13,1.44,1.23,2.17,1.76,3.39a2.85,2.85,0,0,1,.21,1.79c-.14.6-.76,1.25-.74,1.86a2.87,2.87,0,0,0,.64,1.28,6.37,6.37,0,0,1,.69,1.34c-2.86,1.54-6.44,1.53-9.54.89a16.05,16.05,0,0,1-8.92-4.81,2.38,2.38,0,0,1,.6-.83,8.88,8.88,0,0,1,1.7-.9c.85-.49,0-2,0-2.77.05-1.37,1.05-1.94,2.19-2.41.82-.34.86-.84.86-1.68a3.15,3.15,0,0,0-.4-1.91,1.06,1.06,0,0,1-.71-.15,5.86,5.86,0,0,0-1.36-.6,1,1,0,0,1-.59-1.21A.79.79,0,0,1,157.28,83Z" fill="#56403d"></path><path d="M160.3,86a15.39,15.39,0,0,1-3.72-1.32c0-.13-.38-4.88,8.05-3.23s4.43,11.74,4.43,11.74" fill="#56403d"></path><path d="M169.5,191a5.22,5.22,0,0,0,2.45-1.16,4.53,4.53,0,0,0,.51-2.65q0-1.28,0-2.56a.42.42,0,0,0,.16-.31,15.36,15.36,0,0,0,0-2.09l3.51-.34a63.21,63.21,0,0,1,1.46,6.67c-.1.69-3.43,5.23-5.12,5.54s-6.4-1.17-6.79-1.82l0-.06C166.93,191.88,168.22,191.48,169.5,191Z" fill="#fbb5ad"></path><path d="M145.29,178.55c1.16-.23,5.94.55,5.94.55s.67-3.9.58-4.09l5,.35s.63,7.25.63,8.21c0,1.76-2.17,2.31-2.65,2.24a8.56,8.56,0,0,1-1-.41,14.47,14.47,0,0,0,.28-2.75c0-.42-.11-.72-.51-.87a6.59,6.59,0,0,0-2.85.26c-.89.17-1.77.38-2.66.54-2-1-3.62-2-3.76-2.43C143.92,179.13,143.52,178.89,145.29,178.55Z" fill="#fbb5ad"></path><path d="M143.62,178.85l.12-.13c.38-.37,1.38-.34,1.85-.35a23.52,23.52,0,0,1,5.63.72s-4.52-.62-4.69.19a2.15,2.15,0,0,0,.46,1.86c1.89,1.68,4.83-.17,6.67-1l3.41-1.47.22,2.78a20.6,20.6,0,0,1,0,3.82c-.23.39-2.26,1.45-2.68,1.24s-1.76-1-1.76-1l.27-3.35s-2.82,1.22-4.15.88C148,182.8,142.45,180.43,143.62,178.85Z" fill="#56403d"></path><path d="M174.33,188.68s-1.83,5.73-2.5,6.1-7.71-1.87-6.66-3.21c.67-.86,4.92-.85,5.3-1,0,0-2.23.73-2.23,1.09s2.81,1.66,3,1.39,3.21-5.28,3.21-5.28l2.88-1,2.37,5.27-2,.86s-.62,1.6-.82,1.6a23.28,23.28,0,0,1-1.85-3,7.78,7.78,0,0,1-.7,2.09c-.29.21-2.63,2.13-3.69.66l2-2.21" fill="#56403d"></path><path d="M159.7,177.3c-4.43.84-9.12.07-12.45-2.95-.08-7.38-.76-14-.54-21.41.35-12,2.1-23.84,10.55-33.23l15.38-2.36c6.24,11.87,7.51,66.18,7.51,66.18s-7.77,5-13.79,2.6L164,140.88s-4.07,4.82-4.81,7.52C158.7,150.34,159.79,168.21,159.7,177.3Z" fill="#999a1c"></path><path d="M114.89,148.08l35-20.05a.75.75,0,0,0-.76-1.3l-35,20.05a.75.75,0,0,0,.76,1.3Z" fill="#fff"></path><path d="M114.4,143.23l35-20.05a.75.75,0,0,0-.76-1.3l-35,20.05a.75.75,0,0,0,.76,1.3Z" fill="#fff"></path><path d="M113.32,138.06l35-20.05a.75.75,0,0,0-.76-1.3l-35,20.05a.75.75,0,0,0,.76,1.3Z" fill="#fff"></path><path d="M103.94,92.18l16.78-9.62a.75.75,0,0,0-.76-1.3l-16.78,9.62a.75.75,0,0,0,.76,1.3Z" fill="#fff"></path><path d="M104.48,97l16.78-9.62a.75.75,0,0,0-.76-1.3l-16.78,9.62a.75.75,0,0,0,.76,1.3Z" fill="#fff"></path></svg>