<svg xmlns="http://www.w3.org/2000/svg" viewBox="0 0 456.43 393"><defs><style>.b78a1ab8-2e9a-4304-b816-4882391aaf35{isolation:isolate;}.ac235c4a-7717-4239-a3d9-decddd327014{fill:#545354;}.a560ee2a-96aa-4d30-b917-b9dd09b4accc{opacity:0.58;}.aa175ff6-e76d-44ad-ab2a-7726ee7e41ed{fill:#fff;}.b5893ede-83c9-4651-bce6-a79fec00da2e{fill:#74cacd;}.ff0981a9-17e3-4085-a2b4-4b8734904d83{fill:#26113c;}.bcd88c30-f853-4a53-9566-a337195004c8{fill:#f9ae3b;}.b4e53bb2-fabf-432b-bcfb-77fcfdfa34dc{fill:#b2dee8;}.e67135b6-510a-41a4-bef7-b5d51ce4270f{fill:#4b385c;}.a1d04cfd-ad13-43d5-8fc1-dd595ee0c9ed{fill:#d67b80;}.a53ff917-f3a7-4b81-a8be-52571c4c4bee{fill:#e26b6d;}.a17a7a0c-9950-47e3-ac83-2ba5e8234610{fill:#f1c559;}.b74c9808-0fb3-4acb-bfe0-851a87c5f366{fill:#c4cc8f;}.b6d76545-3c31-4159-a443-d7247dce9a6e,.e4fca069-d665-4ca8-9f43-84cf30f7c917{fill:#ebf3f3;}.abb5035e-c74a-4a3c-9621-8ed9b29f375b{fill:#f0ab89;}.f40fc139-8200-461b-a681-5d2f2dc0b926{fill:#c46877;}.b8320393-1890-4884-a76e-0b545db903ad{fill:#df8054;}.e4fca069-d665-4ca8-9f43-84cf30f7c917{mix-blend-mode:multiply;}.bd994dc1-bf31-4a33-a1ee-4573f250162d{fill:#5b9d9a;}.bbce6115-5a6f-4749-975e-2700010d3489{fill:#79c7a1;}.ad1da0f4-8fcb-4d48-8a8e-0965016eb900{fill:#c16a75;}.bb9f8d2c-f57e-4dde-9110-024e5922280c{fill:#d0e3e3;}.b9a771cb-1b05-4268-a163-56ca1dbc4eac{fill:#d17d81;}.eefa8352-f637-4604-80ad-c36a97a29f29{fill:#fbf8f2;}</style></defs><title>psdtohtml-2</title><g class="b78a1ab8-2e9a-4304-b816-4882391aaf35"><g id="a9d8aa63-754b-4cab-ba7b-23be957e1f4e" data-name="BACKGROUND"><path class="ac235c4a-7717-4239-a3d9-decddd327014" d="M422.89,213.37c-9.91-6.5-21-12.49-25.47-23.34-3.88-9.49-1.45-20.49,3.11-29.68s11.12-17.24,16.09-26.21c9.61-17.34,12.71-39.58,2.93-56.83-7.59-13.4-22-22-37.14-25.07s-30.85-1-45.69,3.19c-16.34,4.55-33.47,11.63-49.64,6.5S261,41.2,248.8,29.47C229.48,10.9,202.58,1.3,175.8.13s-53.46,5.61-78,16.33C83.23,22.81,68.37,31.5,61.83,46c-10.35,22.83,3.89,50.54-4.14,74.29C49,146.1,17.58,157.6,4.93,181.8-9.91,210.17,9.61,231,20,256a145.8,145.8,0,0,1,9.3,32.77c1.46,9.07,2.1,18.44,5.78,26.85A40.37,40.37,0,0,0,68.35,339.2C88.48,340.67,106.43,327,126.22,323c28.65-5.73,57.08,9.4,81.42,25.56s49.36,34.58,78.52,36.5a75.8,75.8,0,0,0,56.42-20.4c16.36-15.54,26-38.64,46.07-48.93,16.62-8.51,37.85-6.65,52.62-18.08,13-10,17.38-28.67,13.19-44.53s-15.75-29-29.29-38.24C424.42,214.38,423.66,213.87,422.89,213.37Z" transform="translate(0.44)"/></g><g id="ab0357a4-cd49-4b62-b4eb-e3027493c007" data-name="OBJECTS"><g class="a560ee2a-96aa-4d30-b917-b9dd09b4accc"><rect class="aa175ff6-e76d-44ad-ab2a-7726ee7e41ed" x="143.1" y="11.24" width="1.98" height="15.53"/></g><path class="b5893ede-83c9-4651-bce6-a79fec00da2e" d="M201.87,19.31V25.9H53V19.31a7.69,7.69,0,0,1,7.68-7.69H194.2A7.68,7.68,0,0,1,201.87,19.31Z" transform="translate(0.44)"/><path class="ff0981a9-17e3-4085-a2b4-4b8734904d83" d="M201.87,25.9v78.54a7.66,7.66,0,0,1-7.67,7.67H60.68A7.67,7.67,0,0,1,53,104.44V25.9Z" transform="translate(0.44)"/><rect class="aa175ff6-e76d-44ad-ab2a-7726ee7e41ed" x="58.28" y="33.02" width="1.52" height="11.91"/><path class="aa175ff6-e76d-44ad-ab2a-7726ee7e41ed" d="M62.59,35.77,66,34v.51L63.13,36h0L66,37.44V38l-3.44-1.78Z" transform="translate(0.44)"/><path class="aa175ff6-e76d-44ad-ab2a-7726ee7e41ed" d="M67.07,32.67h.65v2.25h0a1.16,1.16,0,0,1,.47-.46,1.34,1.34,0,0,1,.67-.19c.48,0,1.25.3,1.25,1.54V38h-.65V35.88c0-.58-.22-1.07-.83-1.07a.94.94,0,0,0-.88.66.72.72,0,0,0,0,.31V38h-.65Z" transform="translate(0.44)"/><path class="aa175ff6-e76d-44ad-ab2a-7726ee7e41ed" d="M72,33.32v1h.93v.5H72v1.94c0,.45.12.7.49.7a1.16,1.16,0,0,0,.38-.05l0,.5a1.71,1.71,0,0,1-.58.08.91.91,0,0,1-.71-.27,1.31,1.31,0,0,1-.25-.94v-2h-.56v-.5h.56v-.86Z" transform="translate(0.44)"/><path class="aa175ff6-e76d-44ad-ab2a-7726ee7e41ed" d="M73.63,35.33c0-.37,0-.68,0-1h.57l0,.58h0a1.24,1.24,0,0,1,1.13-.66,1.05,1.05,0,0,1,1,.72h0a1.56,1.56,0,0,1,.4-.47,1.25,1.25,0,0,1,.8-.25c.47,0,1.18.31,1.18,1.56V38h-.64v-2c0-.69-.26-1.1-.78-1.1a.86.86,0,0,0-.78.59,1.09,1.09,0,0,0,0,.33V38h-.64V35.79c0-.57-.25-1-.75-1a.89.89,0,0,0-.81.65,1.13,1.13,0,0,0,0,.32V38h-.64Z" transform="translate(0.44)"/><path class="aa175ff6-e76d-44ad-ab2a-7726ee7e41ed" d="M79.83,32.67h.66V38h-.66Z" transform="translate(0.44)"/><path class="aa175ff6-e76d-44ad-ab2a-7726ee7e41ed" d="M85,36.18,81.54,38v-.51L84.46,36h0l-2.92-1.46V34L85,35.77Z" transform="translate(0.44)"/><path class="bcd88c30-f853-4a53-9566-a337195004c8" d="M68.89,44.7l3.45-1.78v.51l-2.91,1.46v0l2.91,1.45v.51L68.89,45.1Z" transform="translate(0.44)"/><path class="bcd88c30-f853-4a53-9566-a337195004c8" d="M73.38,41.6H74v2.24h0a1.2,1.2,0,0,1,.46-.46,1.4,1.4,0,0,1,.67-.18c.49,0,1.26.29,1.26,1.53v2.14h-.66V44.81c0-.58-.21-1.07-.83-1.07a.93.93,0,0,0-.87.65.75.75,0,0,0,0,.31v2.17h-.65Z" transform="translate(0.44)"/><path class="bcd88c30-f853-4a53-9566-a337195004c8" d="M77.87,45.2a1.14,1.14,0,0,0,1.23,1.24,2.48,2.48,0,0,0,1-.18l.11.47A3,3,0,0,1,79,47a1.67,1.67,0,0,1-1.77-1.81,1.74,1.74,0,0,1,1.69-1.94,1.52,1.52,0,0,1,1.49,1.69c0,.13,0,.24,0,.31Zm1.92-.47c0-.42-.17-1.07-.91-1.07a1.08,1.08,0,0,0-1,1.07Z" transform="translate(0.44)"/><path class="bcd88c30-f853-4a53-9566-a337195004c8" d="M83.22,46.87l0-.45h0a1.35,1.35,0,0,1-1.1.54,1,1,0,0,1-1.1-1c0-.87.77-1.34,2.16-1.33v-.08a.74.74,0,0,0-.82-.83,1.72,1.72,0,0,0-.93.27l-.15-.43a2.18,2.18,0,0,1,1.18-.32c1.1,0,1.37.75,1.37,1.47V46a4.52,4.52,0,0,0,.06.86ZM83.13,45c-.72,0-1.53.11-1.53.81a.58.58,0,0,0,.62.62.89.89,0,0,0,.87-.6.78.78,0,0,0,0-.21Z" transform="translate(0.44)"/><path class="bcd88c30-f853-4a53-9566-a337195004c8" d="M87.92,41.6V46c0,.32,0,.68,0,.92h-.59l0-.62h0a1.34,1.34,0,0,1-1.23.71,1.64,1.64,0,0,1-1.53-1.83,1.71,1.71,0,0,1,1.61-1.93,1.19,1.19,0,0,1,1.08.55h0V41.6Zm-.65,3.14a1.24,1.24,0,0,0,0-.27,1,1,0,0,0-.94-.76c-.68,0-1.08.59-1.08,1.39s.35,1.33,1.06,1.33a1,1,0,0,0,1-.78,1.27,1.27,0,0,0,0-.28Z" transform="translate(0.44)"/><path class="bcd88c30-f853-4a53-9566-a337195004c8" d="M92.41,45.11,89,46.87v-.51l2.93-1.45v0L89,43.43v-.51l3.45,1.77Z" transform="translate(0.44)"/><path class="b4e53bb2-fabf-432b-bcfb-77fcfdfa34dc" d="M75.2,53.62l3.44-1.77v.51l-2.9,1.46h0l2.9,1.46v.51L75.2,54Z" transform="translate(0.44)"/><path class="b4e53bb2-fabf-432b-bcfb-77fcfdfa34dc" d="M80.47,51.17v1h.94v.5h-.94v1.94c0,.45.12.7.49.7a1.16,1.16,0,0,0,.38-.05l0,.49a1.46,1.46,0,0,1-.58.09.91.91,0,0,1-.71-.27,1.36,1.36,0,0,1-.25-.94v-2h-.56v-.5h.56v-.86Z" transform="translate(0.44)"/><path class="b4e53bb2-fabf-432b-bcfb-77fcfdfa34dc" d="M82.87,51.19a.41.41,0,0,1-.81,0,.4.4,0,0,1,.41-.41A.39.39,0,0,1,82.87,51.19Zm-.73,4.61V52.2h.66v3.6Z" transform="translate(0.44)"/><path class="b4e53bb2-fabf-432b-bcfb-77fcfdfa34dc" d="M84.67,51.17v1h.94v.5h-.94v1.94c0,.45.13.7.49.7a1.16,1.16,0,0,0,.38-.05l0,.49a1.46,1.46,0,0,1-.58.09.92.92,0,0,1-.71-.27,1.36,1.36,0,0,1-.25-.94v-2h-.56v-.5H84v-.86Z" transform="translate(0.44)"/><path class="b4e53bb2-fabf-432b-bcfb-77fcfdfa34dc" d="M86.34,50.52H87V55.8h-.66Z" transform="translate(0.44)"/><path class="b4e53bb2-fabf-432b-bcfb-77fcfdfa34dc" d="M88.46,54.12a1.16,1.16,0,0,0,1.24,1.25,2.22,2.22,0,0,0,1-.19l.11.47a3,3,0,0,1-1.19.22,1.66,1.66,0,0,1-1.77-1.81,1.75,1.75,0,0,1,1.69-1.94A1.52,1.52,0,0,1,91,53.82a2.11,2.11,0,0,1,0,.3Zm1.92-.47a.93.93,0,0,0-.91-1.06,1.08,1.08,0,0,0-1,1.06Z" transform="translate(0.44)"/><path class="b4e53bb2-fabf-432b-bcfb-77fcfdfa34dc" d="M95.22,54,91.77,55.8v-.51l2.93-1.46h0l-2.93-1.46v-.51l3.45,1.76Z" transform="translate(0.44)"/><path class="b4e53bb2-fabf-432b-bcfb-77fcfdfa34dc" d="M96.1,55.41a.45.45,0,0,1,.45-.47.47.47,0,1,1-.45.47Z" transform="translate(0.44)"/><path class="b4e53bb2-fabf-432b-bcfb-77fcfdfa34dc" d="M97.64,55.41a.45.45,0,0,1,.45-.47.47.47,0,1,1-.45.47Z" transform="translate(0.44)"/><path class="b4e53bb2-fabf-432b-bcfb-77fcfdfa34dc" d="M99.18,55.41a.45.45,0,0,1,.45-.47.47.47,0,1,1-.45.47Z" transform="translate(0.44)"/><path class="b4e53bb2-fabf-432b-bcfb-77fcfdfa34dc" d="M100.82,53.62l3.45-1.77v.51l-2.9,1.46h0l2.9,1.46v.51L100.82,54Z" transform="translate(0.44)"/><path class="b4e53bb2-fabf-432b-bcfb-77fcfdfa34dc" d="M104.76,56.1l2.07-5.39h.51l-2.08,5.39Z" transform="translate(0.44)"/><path class="b4e53bb2-fabf-432b-bcfb-77fcfdfa34dc" d="M108.65,51.17v1h.93v.5h-.93v1.94c0,.45.12.7.49.7a1.16,1.16,0,0,0,.38-.05l0,.49a1.46,1.46,0,0,1-.58.09.91.91,0,0,1-.71-.27,1.36,1.36,0,0,1-.25-.94v-2h-.56v-.5H108v-.86Z" transform="translate(0.44)"/><path class="b4e53bb2-fabf-432b-bcfb-77fcfdfa34dc" d="M111.05,51.19a.41.41,0,0,1-.81,0,.4.4,0,0,1,.41-.41A.39.39,0,0,1,111.05,51.19Zm-.73,4.61V52.2H111v3.6Z" transform="translate(0.44)"/><path class="b4e53bb2-fabf-432b-bcfb-77fcfdfa34dc" d="M112.85,51.17v1h.94v.5h-.94v1.94c0,.45.13.7.49.7a1.16,1.16,0,0,0,.38-.05l0,.49a1.46,1.46,0,0,1-.58.09.91.91,0,0,1-.71-.27,1.36,1.36,0,0,1-.25-.94v-2h-.56v-.5h.56v-.86Z" transform="translate(0.44)"/><path class="b4e53bb2-fabf-432b-bcfb-77fcfdfa34dc" d="M114.52,50.52h.66V55.8h-.66Z" transform="translate(0.44)"/><path class="b4e53bb2-fabf-432b-bcfb-77fcfdfa34dc" d="M116.64,54.12a1.16,1.16,0,0,0,1.24,1.25,2.25,2.25,0,0,0,1-.19l.11.47a3,3,0,0,1-1.19.22A1.66,1.66,0,0,1,116,54.06a1.75,1.75,0,0,1,1.69-1.94,1.52,1.52,0,0,1,1.48,1.7,2.11,2.11,0,0,1,0,.3Zm1.92-.47a.93.93,0,0,0-.91-1.06,1.08,1.08,0,0,0-1,1.06Z" transform="translate(0.44)"/><path class="b4e53bb2-fabf-432b-bcfb-77fcfdfa34dc" d="M123.4,54,120,55.8v-.51l2.93-1.46h0L120,52.36v-.51l3.45,1.76Z" transform="translate(0.44)"/><path class="aa175ff6-e76d-44ad-ab2a-7726ee7e41ed" d="M62.59,71.47,66,69.7v.51l-2.9,1.46h0L66,73.14v.51l-3.44-1.78Z" transform="translate(0.44)"/><path class="aa175ff6-e76d-44ad-ab2a-7726ee7e41ed" d="M66.52,74l2.07-5.39h.51L67,74Z" transform="translate(0.44)"/><path class="aa175ff6-e76d-44ad-ab2a-7726ee7e41ed" d="M69.62,68.37h.66v2.25h0a1.16,1.16,0,0,1,.47-.46,1.34,1.34,0,0,1,.67-.19c.48,0,1.25.3,1.25,1.54v2.14H72V71.58c0-.58-.22-1.07-.83-1.07a.94.94,0,0,0-.88.66.73.73,0,0,0,0,.31v2.17h-.66Z" transform="translate(0.44)"/><path class="aa175ff6-e76d-44ad-ab2a-7726ee7e41ed" d="M74.51,69v1h.93v.5h-.93v1.94c0,.45.12.7.49.7a1.16,1.16,0,0,0,.38,0l0,.49a1.46,1.46,0,0,1-.58.09.91.91,0,0,1-.71-.27,1.36,1.36,0,0,1-.25-.94v-2h-.56v-.5h.56v-.86Z" transform="translate(0.44)"/><path class="aa175ff6-e76d-44ad-ab2a-7726ee7e41ed" d="M76.18,71c0-.38,0-.68,0-1h.57l0,.58h0A1.24,1.24,0,0,1,77.91,70a1.05,1.05,0,0,1,1,.72h0a1.44,1.44,0,0,1,.4-.47,1.25,1.25,0,0,1,.8-.25c.47,0,1.18.31,1.18,1.56v2.12h-.64v-2c0-.69-.26-1.1-.78-1.1a.92.92,0,0,0-.83.92v2.22h-.64V71.49c0-.57-.25-1-.75-1a.89.89,0,0,0-.81.65,1.13,1.13,0,0,0-.05.32v2.17h-.64Z" transform="translate(0.44)"/><path class="aa175ff6-e76d-44ad-ab2a-7726ee7e41ed" d="M82.38,68.37H83v5.28h-.66Z" transform="translate(0.44)"/><path class="aa175ff6-e76d-44ad-ab2a-7726ee7e41ed" d="M87.54,71.88l-3.45,1.77v-.51L87,71.68h0l-2.93-1.46V69.7l3.45,1.76Z" transform="translate(0.44)"/><path class="e67135b6-510a-41a4-bef7-b5d51ce4270f" d="M304.7,47V148.23a2.94,2.94,0,0,1-2.93,2.94H136.14a2.94,2.94,0,0,1-2.93-2.94V47A2.94,2.94,0,0,1,136.14,44H301.77A2.94,2.94,0,0,1,304.7,47Z" transform="translate(0.44)"/><path class="a1d04cfd-ad13-43d5-8fc1-dd595ee0c9ed" d="M304.7,47v8H133.21V47A2.94,2.94,0,0,1,136.14,44H301.77A2.94,2.94,0,0,1,304.7,47Z" transform="translate(0.44)"/><path class="a53ff917-f3a7-4b81-a8be-52571c4c4bee" d="M284.93,49.84a2.18,2.18,0,1,1-2.17-2.18A2.17,2.17,0,0,1,284.93,49.84Z" transform="translate(0.44)"/><path class="a17a7a0c-9950-47e3-ac83-2ba5e8234610" d="M292.58,49.84a2.18,2.18,0,1,1-2.18-2.18A2.18,2.18,0,0,1,292.58,49.84Z" transform="translate(0.44)"/><path class="b74c9808-0fb3-4acb-bfe0-851a87c5f366" d="M300.22,49.84a2.18,2.18,0,1,1-2.17-2.18A2.17,2.17,0,0,1,300.22,49.84Z" transform="translate(0.44)"/><rect class="aa175ff6-e76d-44ad-ab2a-7726ee7e41ed" x="147.1" y="59.18" width="0.93" height="7.32"/><path class="b6d76545-3c31-4159-a443-d7247dce9a6e" d="M180.8,89.56v8.09h9.36V89.56h2.53V108.9h-2.53V99.83H180.8v9.07h-2.49V89.56Z" transform="translate(0.44)"/><path class="b6d76545-3c31-4159-a443-d7247dce9a6e" d="M200.69,91.68h-5.88V89.56h14.32v2.12h-5.92V108.9h-2.52Z" transform="translate(0.44)"/><path class="b6d76545-3c31-4159-a443-d7247dce9a6e" d="M227.58,100.41c-.14-2.7-.32-5.94-.29-8.36h-.08c-.66,2.27-1.47,4.68-2.44,7.35l-3.42,9.39h-1.89l-3.13-9.22c-.92-2.72-1.7-5.22-2.24-7.52H214c-.06,2.42-.2,5.66-.37,8.56l-.52,8.29h-2.38l1.35-19.34h3.19l3.3,9.35c.8,2.39,1.46,4.51,2,6.52h.08c.49-2,1.18-4.08,2-6.52l3.45-9.35h3.18l1.21,19.34h-2.44Z" transform="translate(0.44)"/><path class="b6d76545-3c31-4159-a443-d7247dce9a6e" d="M234.35,89.56h2.49v17.25h8.27v2.09H234.35Z" transform="translate(0.44)"/><rect class="a53ff917-f3a7-4b81-a8be-52571c4c4bee" x="151.21" y="65.95" width="83.18" height="1.98" rx="0.85"/><rect class="a17a7a0c-9950-47e3-ac83-2ba5e8234610" x="151.21" y="126.77" width="92.83" height="1.95" rx="0.85"/><path class="aa175ff6-e76d-44ad-ab2a-7726ee7e41ed" d="M256,71.5H151.61a.85.85,0,0,0-.85.85h0a.85.85,0,0,0,.85.84H256a.85.85,0,0,0,.85-.84h0A.85.85,0,0,0,256,71.5Z" transform="translate(0.44)"/><rect class="b74c9808-0fb3-4acb-bfe0-851a87c5f366" x="151.21" y="132.19" width="89.73" height="1.92" rx="0.85"/><rect class="a53ff917-f3a7-4b81-a8be-52571c4c4bee" x="151.21" y="121.84" width="106.17" height="2.01" rx="0.94"/><rect class="b74c9808-0fb3-4acb-bfe0-851a87c5f366" x="261.62" y="71.41" width="26.21" height="1.81" rx="0.85"/><rect class="aa175ff6-e76d-44ad-ab2a-7726ee7e41ed" x="150.96" y="60.57" width="30.44" height="1.94" rx="0.85"/><path class="ff0981a9-17e3-4085-a2b4-4b8734904d83" d="M327.77,160.66c.1,1.3.37,2.72.6,4,1.72-4.31,3.78-8.47,4-13.23.3-7.6-4-17-11.25-20a21.3,21.3,0,0,0-11.48-1.53c-2.07.33-4.09.75-5.48,2.45a10,10,0,0,0-1.11,1.74,6.56,6.56,0,0,0-2.62,1.35c-1.35,1.19-2.11,3.46-2.58,5.17-2.94,10.62-1.9,23.33,4.68,32.47a33,33,0,0,0,17.08,12.18c5.17,1.61,11.05,3.42,16.52,2.5a66.81,66.81,0,0,1-6.41-3c-2.22-1.22-4.77-2.88-6.12-5.11-1.21-2-.9-4.66-.43-6.86C324,168.5,326.07,164.6,327.77,160.66Z" transform="translate(0.44)"/><path class="ff0981a9-17e3-4085-a2b4-4b8734904d83" d="M324.45,138.51c-3.52-4.35-10.27-7.36-15.23-3.7-.26.2.09.56.35.37,5.7-4.21,13.12.73,16,5.84,2.43,4.34,3.32,11.25.77,15.75-.16.28.27.55.43.27C329.82,151.59,328.27,143.22,324.45,138.51Z" transform="translate(0.44)"/><path class="ff0981a9-17e3-4085-a2b4-4b8734904d83" d="M322.06,146.84c-1.63-5.31-6.09-11.09-11.93-11.59-.32,0-.34.47,0,.5,5.47.47,10,6.23,11.45,11.21s-.05,9-2.56,13.33c-2.13,3.71-4.12,7.45-1.32,11.36.19.26.64,0,.45-.24-4.07-5.68,2-10.38,3.82-15.44A14.34,14.34,0,0,0,322.06,146.84Z" transform="translate(0.44)"/><path class="abb5035e-c74a-4a3c-9621-8ed9b29f375b" d="M293.21,224.16l-24.1,4.3-.5.06-.15.11a2.77,2.77,0,0,0-.37.22c-.58.32-1.14.6-1.67.83l-.51.22-1,.34c-.27.09-.53.15-.78.21a7.52,7.52,0,0,1-1.72.21,4.82,4.82,0,0,0-.83.1s-.08,0-.1,0a3.44,3.44,0,0,0-1.74.93l-.22.21c-2.95,2.8-3.27,1.78-3.27,1.78-.5-1,2.1-3.22,3.37-4.22a43.06,43.06,0,0,0-4.68,4,1.86,1.86,0,0,1-.36.17h0a.56.56,0,0,1-.71-.31,1.57,1.57,0,0,1-.15-.41c-.47-.84,4.92-4.7,5.75-5.27-5.64,3.43-6.12,4.46-6.12,4.46-.36.24-.56.17-.69,0a1.16,1.16,0,0,1-.11-.16,2.3,2.3,0,0,1-.09-.31v-.05c.34-1.76,2.41-3.33,4.12-4.34l.26-.14a21,21,0,0,1,2.08-1.07,12.21,12.21,0,0,0-5.15,2.49l-.16.12a4.16,4.16,0,0,0-.74.63l0,0a.52.52,0,0,1-.17.16c-.75.76-1-.23-1-.41,0,0,0,0,0,0,1.57-4.38,6.39-5,7.1-5.06a1.67,1.67,0,0,0-.31,0c-2.86-.07-3.17-.7-3.07-1.07a.58.58,0,0,1,.06-.17h0a.5.5,0,0,1,.08-.12s0,0,.07,0c.68-.53,2.19-.59,3.9-.46.58.07,1.16.13,1.75.22,1.58.24,5.32,1.11,5.46,1.14l.2,0,0,0,18.24-7.32a17.47,17.47,0,0,1,3.33-.95l5.1-2.1.63-12.66,1-20.28a7.3,7.3,0,0,1,4.23-6.22,6,6,0,0,1,8.63,6.09l-2.06,25.39-.56,6.73A12.87,12.87,0,0,1,293.21,224.16Z" transform="translate(0.44)"/><path class="f40fc139-8200-461b-a681-5d2f2dc0b926" d="M299.8,174.62a1.28,1.28,0,0,0-2.16-.46c-2.68,2.93-8.15,10.82-10.32,28.06l-4,44.07,18.23-2.16L308,199.46Z" transform="translate(0.44)"/><path class="b5893ede-83c9-4651-bce6-a79fec00da2e" d="M313,202.46l-12.78-1-5.35-19.59a7.28,7.28,0,0,1,2.09-7.23A6,6,0,0,1,307,177.7Z" transform="translate(0.44)"/><path class="e67135b6-510a-41a4-bef7-b5d51ce4270f" d="M287.94,274l-1,13.82-1.12,15.92c0,.51-.07,1-.1,1.53a144.8,144.8,0,0,0,.41,22.81l4.1,44.85c0,.32.06.64.08,1l7.15.59c2.47-13.69,2.62-42.53-.86-59.9-.1-.48-.29-.94,0-1.28,1.88-2.06,17-64.32,17-64.32l13-6.81s-.56-1.07-1.39-2.58l0,0c-1.25-2.37-3.15-5.88-4.52-8.22a9.7,9.7,0,0,1-.51-.95l0,0,0-.06a16.83,16.83,0,0,1-1.46-4S301,225,297.57,225.48c-.24,0-6.84,14-6.84,14-.14.86-.25,1.7-.36,2.54A263.83,263.83,0,0,0,287.94,274Z" transform="translate(0.44)"/><path class="e67135b6-510a-41a4-bef7-b5d51ce4270f" d="M310.9,230.6c0,2.15,0,4.32-.11,6.49l-.14,6.44c0,.87,0,1.71,0,2.56a260.85,260.85,0,0,0,1,26.24,0,0,0,0,0,0,0c.16,1.92.35,3.85.55,5.76l.09,1.65.53,10.16.94,18c0,.5.06,1,.09,1.53A146.88,146.88,0,0,0,317,332l9.41,42.31c.06.28.12.57.17.85l7.15.58c.76-13.33-1.42-43.72-6.6-57.35-.17-.45,2.7-13.54,4.24-26.95,1.46-12.65,2.51-27.36,1.79-37.65-.43-6.19-.73-12.45-3.46-18a31,31,0,0,0-3-4.93,19.93,19.93,0,0,0-3.93-4.21l-9.43,3.11-2.44.81Z" transform="translate(0.44)"/><polygon class="abb5035e-c74a-4a3c-9621-8ed9b29f375b" points="303.61 172.91 312.33 173.49 312.09 167.84 311.73 158.95 302.26 155.93 303.3 169.05 303.61 172.91"/><path class="b8320393-1890-4884-a76e-0b545db903ad" d="M303.05,171.48a8.77,8.77,0,0,0,8.6-3.64l-.36-8.89-9.48-3Z" transform="translate(0.44)"/><path class="b5893ede-83c9-4651-bce6-a79fec00da2e" d="M323.88,187.81c-.59,3.75-.86,7.59-2.67,11-.65,1.14-1.27,2.3-1.9,3.42-.75,1.38-1.47,2.76-2.15,4.17-.53,1.08-1,2.17-1.52,3.3-.66,1.55-1.38,4.31-.86,6a3.47,3.47,0,0,0,.84,1.32c.89.93,18.73,15,17.69,36.24-14.91-7.78-28.25-1.37-44.46-1.2,0,0,1.51-35,1.44-36.73-.15-3.68-1.24-7.34-1.85-11,0-.15,0-.31-.06-.44a16.14,16.14,0,0,0-.2-1.79c-2.51-1.54-4.33-3.46-4.69-6.31-.61-4.78,2.81-7.65,5.73-10.9a.79.79,0,0,1,.08-.11c.73-.8,1.44-1.61,2.15-2.41,2.5-2.73,5-5.49,7.55-8.17-1.23,2.35-1.4,4.57-.23,5.7,1.72,1.66,5.68.32,8.84-3a13.6,13.6,0,0,0,3-4.76c.35,0,.77.08,1.23.11s1.09.09,1.65.16a12.7,12.7,0,0,1,2.22.37,6.12,6.12,0,0,1,1.72.63C322.7,176.25,324.79,182,323.88,187.81Z" transform="translate(0.44)"/><path class="ff0981a9-17e3-4085-a2b4-4b8734904d83" d="M309.82,177.87c-2.69,3.28-6.4,5.3-10.72,4.56-.36-.07-.41.5-.06.56,4.52.78,8.43-1.36,11.25-4.79C310.52,177.92,310.05,177.59,309.82,177.87Z" transform="translate(0.44)"/><path class="ff0981a9-17e3-4085-a2b4-4b8734904d83" d="M311.05,198.1a11.42,11.42,0,0,1-12.88.51c-.42-.26-.87.37-.45.64a12.23,12.23,0,0,0,13.82-.56C312,198.4,311.45,197.8,311.05,198.1Z" transform="translate(0.44)"/><path class="f40fc139-8200-461b-a681-5d2f2dc0b926" d="M311.89,172.29s-2.84,2.28-4,9.1c-2,12.05-2.41,35.35,1.46,64.54,0,0,7-2.94,24.39,2l-7.71-25.41a52.4,52.4,0,0,1-1.93-21.09l1-8.83a24.24,24.24,0,0,0-2.22-13.43C320.82,175,317.38,171.15,311.89,172.29Z" transform="translate(0.44)"/><path class="abb5035e-c74a-4a3c-9621-8ed9b29f375b" d="M298.78,179.94c1.72,1.65,6.29.58,9.46-2.72,1.47-1.54,3.13-3.4,3.65-4.93a42.25,42.25,0,0,0-7.17-.33c-.36,0-.75,0-1.09.06a5.07,5.07,0,0,0-4,1.49l-.66.72C297.77,176.59,297.61,178.81,298.78,179.94Z" transform="translate(0.44)"/><path class="abb5035e-c74a-4a3c-9621-8ed9b29f375b" d="M316.61,154.89c.43-2.25-.27-5.18-2.14-5.28a3.18,3.18,0,0,0-1.78.58c-1.6-6.3-6.54-13.23-11.2-13.48-6.1-.33-11.27,2.84-11.68,18.62-.16,6.24,4.28,12.67,10.28,13.52,4.51.64,9.59-4.35,11.89-9.52C313.94,158.7,316.05,157.74,316.61,154.89Z" transform="translate(0.44)"/><path class="ff0981a9-17e3-4085-a2b4-4b8734904d83" d="M297.35,162.53c-.37,0-.61,0-.62,0a.37.37,0,0,1-.34-.41.36.36,0,0,1,.41-.34c.19,0,4.72.37,5.68-4.07a.39.39,0,0,1,.45-.29.37.37,0,0,1,.29.45A5.86,5.86,0,0,1,297.35,162.53Z" transform="translate(0.44)"/><path class="ff0981a9-17e3-4085-a2b4-4b8734904d83" d="M302.06,153.15a1.11,1.11,0,1,1-1.22-1.12A1.17,1.17,0,0,1,302.06,153.15Z" transform="translate(0.44)"/><path class="ff0981a9-17e3-4085-a2b4-4b8734904d83" d="M294.68,153.63a1.11,1.11,0,1,1-1.21-1.12A1.18,1.18,0,0,1,294.68,153.63Z" transform="translate(0.44)"/><path class="ff0981a9-17e3-4085-a2b4-4b8734904d83" d="M303.83,150.86a.37.37,0,0,1-.37-.17,2.39,2.39,0,0,0-3.26-.95.38.38,0,0,1-.37-.66,3.13,3.13,0,0,1,4.27,1.2.39.39,0,0,1-.12.53A.33.33,0,0,1,303.83,150.86Z" transform="translate(0.44)"/><path class="ff0981a9-17e3-4085-a2b4-4b8734904d83" d="M294.8,150.16a.31.31,0,0,1-.33.09,2,2,0,0,0-2.59,1.19.32.32,0,0,1-.6-.22,2.62,2.62,0,0,1,3.37-1.58.32.32,0,0,1,.22.4A.75.75,0,0,1,294.8,150.16Z" transform="translate(0.44)"/><path class="ff0981a9-17e3-4085-a2b4-4b8734904d83" d="M297,159.23a.36.36,0,0,0,.29-.4.35.35,0,0,0-.4-.29s-.67.09-.9-.23c-.1-.15-.26-.64.49-2a.36.36,0,0,0-.14-.48.35.35,0,0,0-.47.14c-.71,1.26-.85,2.16-.44,2.73a1.73,1.73,0,0,0,1.57.52Z" transform="translate(0.44)"/><path class="ff0981a9-17e3-4085-a2b4-4b8734904d83" d="M273,379.67a1.84,1.84,0,0,0,1.69,2l19.46,1.63a3.8,3.8,0,0,0,4.1-3.47l-.57-4.36-.05-2-7.46-.3s-15.54,4.51-16.42,5.16A1.78,1.78,0,0,0,273,379.67Z" transform="translate(0.44)"/><path class="ff0981a9-17e3-4085-a2b4-4b8734904d83" d="M309.31,380.72a1.84,1.84,0,0,0,1.69,2l19.46,1.63c2.08.17,4.63-1.19,4.1-3.47L334,376.5l-.22-1.6c0-.14,0-.27,0-.43h0l-7.33-.15c0,.14-15.48,4.37-16.35,5A1.76,1.76,0,0,0,309.31,380.72Z" transform="translate(0.44)"/><path class="ff0981a9-17e3-4085-a2b4-4b8734904d83" d="M296.5,178.24a4.67,4.67,0,0,0,.12,4.2c.17.32.68.08.51-.25a4.13,4.13,0,0,1-.1-3.75C297.18,178.1,296.65,177.91,296.5,178.24Z" transform="translate(0.44)"/><path class="abb5035e-c74a-4a3c-9621-8ed9b29f375b" d="M318,226.1l-23,8.31-.48.15a1.58,1.58,0,0,0-.13.13,4.15,4.15,0,0,0-.32.27,14.66,14.66,0,0,1-1.51,1.1l-.46.31-.88.49c-.26.14-.51.24-.75.35a9.14,9.14,0,0,1-1.65.5,3.75,3.75,0,0,0-.81.23.16.16,0,0,0-.1.05,3.47,3.47,0,0,0-1.54,1.21,2.07,2.07,0,0,0-.19.25c-2.43,3.26-2.92,2.3-2.92,2.3-.64-.9,1.37-3.35,2.49-4.6a42.19,42.19,0,0,0-3.82,4.65l-.32.23h0a.56.56,0,0,1-.75-.19,1.24,1.24,0,0,1-.22-.38c-.6-.76,4.07-5.46,4.77-6.16-5,4.34-5.28,5.42-5.28,5.42-.31.3-.52.27-.66.15a.55.55,0,0,1-.13-.14.93.93,0,0,1-.14-.29.08.08,0,0,1,0,0c0-1.8,1.81-3.69,3.33-5,.07-.07.16-.12.22-.19a22.87,22.87,0,0,1,1.88-1.4,12.1,12.1,0,0,0-4.65,3.33l-.14.14a4.33,4.33,0,0,0-.62.75l0,0a.8.8,0,0,1-.15.2c-.62.88-1-.07-1.06-.25,0,0,0,0,0,0,.83-4.72,5.75-6.08,6.21-6.19l-.37,0c-2.84.41-3.24-.16-3.22-.54,0-.05,0-.11,0-.17h0a.37.37,0,0,1,.06-.14s0,0,.06,0c.58-.63,2.06-1,3.77-1.1.58,0,1.17-.07,1.76-.08,1.59,0,5.43.18,5.58.2H292l16.74-10.29a17.6,17.6,0,0,1,3.12-1.5l4.68-2.93L315,202.19l-2.36-19.67a7.33,7.33,0,0,1,3.12-6.85,6,6,0,0,1,9.54,4.56l2.13,24,.71,8A12.88,12.88,0,0,1,318,226.1Z" transform="translate(0.44)"/><path class="b5893ede-83c9-4651-bce6-a79fec00da2e" d="M327.43,204.27c-3.17-3.29-8.92-3.68-12.43-2.08l-2.36-19.67a7.33,7.33,0,0,1,3.12-6.85,6,6,0,0,1,9.54,4.56Z" transform="translate(0.44)"/><path class="ff0981a9-17e3-4085-a2b4-4b8734904d83" d="M310.1,137a18.2,18.2,0,0,1,2.12.18,16.27,16.27,0,0,0,2.21-.27c-5.44-1.56-10.58-6.13-16.44-3.24a9,9,0,0,0-1.37.87,4.1,4.1,0,0,0-3.38,2.08,38.16,38.16,0,0,1-2.14,3.62,15.74,15.74,0,0,1-3.61,2.73,7.69,7.69,0,0,0,2.09.28c-.11.76-.82,1.64-1.05,2.47a5.54,5.54,0,0,0-.18,2.22c.31,2,.51,2.94-.52,4.74,1.61-.44,3.24-2,4.51-3.13a15.43,15.43,0,0,0,3.46-4.48,7.33,7.33,0,0,0,2.86,2.88c-.14-.86.39-1.36.65-2.15s.31-1.58.48-2.34c1,1.77,3.13,2.47,4.32,4.11a9.41,9.41,0,0,1,1.73,6.22c1.17-.46,1.94-2.65,2.35-3.72a23.31,23.31,0,0,1,1.07,5.94,13.56,13.56,0,0,0,4.71-9.38C314,143.37,312.13,139.42,310.1,137Zm-16.53.13L294,137C293.76,137.15,293.61,137.23,293.57,137.13Z" transform="translate(0.44)"/><path class="f40fc139-8200-461b-a681-5d2f2dc0b926" d="M302.57,130.71c5.17.15,9.59,4.12,11.89,9.9.2,1.16.73,2.25,1,3.37,0,0,0,.07,0,.11a25.37,25.37,0,0,1,.65,6.06l-2-.06c.1-9.33-5.08-17-11.68-17.18-6.12-.18-11.39,6.1-12.49,14.43a2.19,2.19,0,0,1-2.17,2C288.33,138.79,294.87,130.49,302.57,130.71Z" transform="translate(0.44)"/><path class="b5893ede-83c9-4651-bce6-a79fec00da2e" d="M311,152.36c-.09,3.06,1.37,5.59,3.26,5.64s3.5-2.38,3.59-5.44-1.38-5.6-3.27-5.65S311.11,149.29,311,152.36Z" transform="translate(0.44)"/><path class="f40fc139-8200-461b-a681-5d2f2dc0b926" d="M313.05,152.44c-.08,2.46,1,4.48,2.35,4.52s2.54-1.92,2.62-4.37-1-4.48-2.36-4.52S313.12,150,313.05,152.44Z" transform="translate(0.44)"/><path class="ff0981a9-17e3-4085-a2b4-4b8734904d83" d="M296.51,136.22c-3.32-.06-6.86,1.94-9.46,3.82a23.55,23.55,0,0,0,3.66,0,5.15,5.15,0,0,0-3.6,4.89,7.14,7.14,0,0,0,2.29-.88c-.91,1-1.95,1.63-2.52,3a3.85,3.85,0,0,0-.07,2.85,11.79,11.79,0,0,0,3.61-2c1.11-.82,2.84-2.26,3.32-3.57" transform="translate(0.44)"/><path class="ff0981a9-17e3-4085-a2b4-4b8734904d83" d="M306.08,140.67c-2.36-1.83-5.35-1.42-7.78-2.81h0c3.24-1,6.3-2.25,9.27.32.24.21.61-.13.37-.34-3.24-2.81-6.51-1.45-10.16-.35a.18.18,0,0,0-.13-.11,7.17,7.17,0,0,0-5.85,1c-.26.18,0,.63.24.45a6.65,6.65,0,0,1,5.46-1,.11.11,0,0,0,.08,0s0,0,0,0a.38.38,0,0,0,0,.1.22.22,0,0,0-.26,0l0,0h0a11.66,11.66,0,0,0-8,4.9c-.19.27.24.53.43.27a11.13,11.13,0,0,1,6.82-4.52,17.94,17.94,0,0,0-3,3,33.18,33.18,0,0,0-3,5.31c-.14.29.28.56.42.26a37.05,37.05,0,0,1,2.64-4.83,18.14,18.14,0,0,1,3.54-3.62,17.57,17.57,0,0,0,0,5.27c.05.32.54.2.49-.12a16.89,16.89,0,0,1,.1-5.63s0-.05,0-.07a.25.25,0,0,0,0-.12l.1,0c.22,1.5,1.61,2.32,2.81,3.16,2.6,1.84,5.22,3.79,5.75,7.14.05.32.54.2.49-.12a8.58,8.58,0,0,0-2.66-4.86c-1.38-1.35-5-3-5.79-5,1.63.74,3.46.67,5.15,1.33a9.17,9.17,0,0,1,5.52,6.62.25.25,0,0,0,.49-.12A9.8,9.8,0,0,0,306.08,140.67Z" transform="translate(0.44)"/><path class="ff0981a9-17e3-4085-a2b4-4b8734904d83" d="M312.43,160.83c-11.34,8.37-1.87,24.29-7.74,35.69,6.14-3.27,5.8-8.34,6.27-14.52.17-2.22.13-5,1-7.08,1.16-2.62,3.83-3.9,3.22-7.17" transform="translate(0.44)"/><ellipse class="e4fca069-d665-4ca8-9f43-84cf30f7c917" cx="225.46" cy="384" rx="175.5" ry="9"/><path class="bd994dc1-bf31-4a33-a1ee-4573f250162d" d="M360.64,232.46c.49-.9.93-1.83,1.36-2.77.8-1.76,2.87-5,2.87-5s-8.23,4.73-12,7.62c-2.67,2.06-5,4.95-5.07,8.46,0,1,4.14.24,4.57.08a14.9,14.9,0,0,0,6.71-5.76A25.19,25.19,0,0,0,360.64,232.46Z" transform="translate(0.44)"/><path class="bbce6115-5a6f-4749-975e-2700010d3489" d="M357,236.09c.25-.05.14-.43-.11-.38a6.4,6.4,0,0,1-3-.3l1.23-1.33a4.27,4.27,0,0,0,2.59.24c.24-.08.14-.47-.1-.39a3.65,3.65,0,0,1-2.19-.17l1.29-1.37,0,0a7.27,7.27,0,0,0,2.85.32c.26,0,.26-.43,0-.4a6.7,6.7,0,0,1-2.56-.26c.51-.52,1-1,1.56-1.52a.2.2,0,0,0,.11,0,6,6,0,0,1,1,0,2.6,2.6,0,0,0,.82-.25c.23-.11,0-.46-.2-.34a2.06,2.06,0,0,1-.88.2l-.35,0c.56-.5,1.13-1,1.73-1.44.2-.16-.08-.44-.28-.28-.61.47-1.2,1-1.77,1.48a1.94,1.94,0,0,1,.13-.82.2.2,0,0,0-.39-.1,2,2,0,0,0-.08,1.22c-.53.49-1,1-1.55,1.5a3.23,3.23,0,0,1,.24-1.18c.09-.24-.29-.34-.39-.1a3.57,3.57,0,0,0-.24,1.59.14.14,0,0,0,0,.07l-1.28,1.35a3.13,3.13,0,0,1,.11-1.29c.07-.24-.31-.34-.39-.1a3.66,3.66,0,0,0-.08,1.71.08.08,0,0,0,0,0c-.44.48-.89,1-1.33,1.45a2.44,2.44,0,0,1-.12-1.62c.07-.24-.32-.35-.39-.1a2.85,2.85,0,0,0,.21,2h0l-1.56,1.66c-.07-.5-.26-1.1.12-1.48.18-.19-.1-.47-.28-.29-.57.57-.23,1.33-.22,2a.18.18,0,0,0,0,.1l-1,1-.18-.67a1.14,1.14,0,0,1-.06-.79c.11-.23-.23-.43-.34-.2-.28.59.08,1.36.24,1.94,0,0,0,0,0,0-.27.27-.54.54-.82.8s.09.45.28.28l.91-.88a5.4,5.4,0,0,0,3.25.27.2.2,0,0,0-.1-.38,4.88,4.88,0,0,1-2.83-.2l1-1a6.83,6.83,0,0,0,1.49.4,14.4,14.4,0,0,0,1.74-.13.2.2,0,0,0,0-.4c-.53,0-1,.19-1.58.15a5,5,0,0,1-1.36-.34c.55-.58,1.1-1.17,1.64-1.76A7.24,7.24,0,0,0,357,236.09Z" transform="translate(0.44)"/><path class="bbce6115-5a6f-4749-975e-2700010d3489" d="M349,221.91c.44-.62.91-1.23,1.4-1.83.9-1.12,2.39-3.59,2.39-3.59s-.4,7.07-1.08,10.55c-.48,2.47-1.63,5-4,6.2-.63.34-1.54-2.68-1.57-3a11.21,11.21,0,0,1,1.59-6.4A21.28,21.28,0,0,1,349,221.91Z" transform="translate(0.44)"/><path class="bd994dc1-bf31-4a33-a1ee-4573f250162d" d="M348,232.86a11.43,11.43,0,0,0,.32-3.16l.07,0a5.55,5.55,0,0,0,2.58-3.11c.08-.25-.31-.35-.39-.11a5.07,5.07,0,0,1-2.25,2.79,14.72,14.72,0,0,1,.11-1.76,5.08,5.08,0,0,0,2.14-1.89c.14-.22-.21-.41-.35-.2a4.63,4.63,0,0,1-1.71,1.61c.09-.52.18-1,.3-1.51a3,3,0,0,0,1.94-1.69c.14-.22-.21-.41-.34-.19a2.8,2.8,0,0,1-1.49,1.46,14,14,0,0,1,.53-1.62.28.28,0,0,0,.13,0,3.11,3.11,0,0,0,1.58-.83c.18-.18-.1-.46-.29-.28a2.76,2.76,0,0,1-1.25.69A12.4,12.4,0,0,1,351,220.7c.15-.2-.2-.4-.35-.19a12.79,12.79,0,0,0-1.37,2.38.38.38,0,0,1-.06-.17c0-.26-.43-.15-.39.1a.74.74,0,0,0,.28.47,14.44,14.44,0,0,0-.53,1.61,1,1,0,0,1-.15-.48c0-.26-.41-.26-.4,0a1.47,1.47,0,0,0,.43,1c-.1.42-.19.84-.27,1.29l0,.24a1.07,1.07,0,0,1-.22-.54c0-.25-.42-.26-.4,0a1.42,1.42,0,0,0,.51,1l.05,0c-.05.55-.07,1.13-.08,1.7a2.19,2.19,0,0,1-.64-.86c-.1-.24-.45,0-.35.19a2.52,2.52,0,0,0,1,1.15h0a12.13,12.13,0,0,1-.37,3.17C347.55,233,347.94,233.1,348,232.86Z" transform="translate(0.44)"/><path class="bd994dc1-bf31-4a33-a1ee-4573f250162d" d="M347.76,223.31c-.3-1-.65-2-1-2.92-.67-1.81-1.52-5.58-1.52-5.58s-2.48,9.16-3.1,13.87c-.43,3.34,0,7,2.4,9.57.66.69,3.09-2.76,3.28-3.18a14.9,14.9,0,0,0,.68-8.81A29.54,29.54,0,0,0,347.76,223.31Z" transform="translate(0.44)"/><path class="bbce6115-5a6f-4749-975e-2700010d3489" d="M347.77,228.43c.14-.22-.2-.42-.34-.2a6.59,6.59,0,0,1-2.32,1.9c0-.61-.05-1.21-.07-1.82a4.23,4.23,0,0,0,2-1.66c.12-.23-.23-.43-.34-.2a3.65,3.65,0,0,1-1.68,1.42c0-.63,0-1.25,0-1.88h0a7.06,7.06,0,0,0,2.24-1.79c.16-.2-.12-.48-.28-.28a7,7,0,0,1-2,1.63c0-.73,0-1.45,0-2.18a.27.27,0,0,0,.08-.07c.17-.27.47-.44.67-.68a2.47,2.47,0,0,0,.4-.75c.09-.25-.3-.35-.38-.11a1.93,1.93,0,0,1-.48.77,3,3,0,0,1-.26.24c0-.75.11-1.5.2-2.25,0-.25-.36-.25-.4,0-.1.77-.16,1.53-.2,2.3a2,2,0,0,1-.49-.67c-.12-.23-.46,0-.34.2a2,2,0,0,0,.81.92c0,.72,0,1.44,0,2.16a3.3,3.3,0,0,1-.67-1c-.1-.23-.44,0-.34.2a3.43,3.43,0,0,0,.95,1.3l.07,0c0,.62,0,1.24,0,1.86a3.18,3.18,0,0,1-.83-1c-.12-.23-.46,0-.34.2a3.45,3.45,0,0,0,1.14,1.26.06.06,0,0,0,.05,0c0,.66.05,1.31.08,2a2.33,2.33,0,0,1-1.22-1,.2.2,0,0,0-.35.2,2.8,2.8,0,0,0,1.58,1.29h0c0,.76.06,1.52.08,2.28-.41-.31-1-.6-1-1.14a.2.2,0,0,0-.4,0c0,.81.78,1.11,1.28,1.59a.24.24,0,0,0,.1,0c0,.48,0,1,0,1.45l-.6-.35a1.18,1.18,0,0,1-.6-.52c-.08-.24-.47-.13-.38.11.22.61,1,.9,1.54,1.2h0c0,.38,0,.76,0,1.15s.39.25.4,0c0-.42,0-.84,0-1.27a5.33,5.33,0,0,0,2.49-2.1.2.2,0,1,0-.34-.2,4.89,4.89,0,0,1-2.14,1.86c0-.47,0-.94,0-1.41a6.57,6.57,0,0,0,1.34-.77,14.18,14.18,0,0,0,1.14-1.32c.18-.19-.1-.47-.28-.29-.38.38-.61.87-1,1.22a5.28,5.28,0,0,1-1.2.73c0-.8-.05-1.61-.09-2.41A7.24,7.24,0,0,0,347.77,228.43Z" transform="translate(0.44)"/><path class="bbce6115-5a6f-4749-975e-2700010d3489" d="M353.6,229c.13-.76.22-1.53.31-2.29.15-1.43.84-4.23.84-4.23s-4.71,5.28-6.69,8.22c-1.41,2.09-2.37,4.68-1.6,7.18.21.68,3-.81,3.25-1a11.12,11.12,0,0,0,3.39-5.66A20.6,20.6,0,0,0,353.6,229Z" transform="translate(0.44)"/><path class="bd994dc1-bf31-4a33-a1ee-4573f250162d" d="M351.58,230.09c.41-.27.82-.56,1.21-.85.21-.15,0-.5-.2-.34-.37.27-.75.54-1.13.79a11.61,11.61,0,0,1,.4-1.62c.08-.24-.3-.35-.38-.1a14,14,0,0,0-.44,1.81,3,3,0,0,1-.35-1c-.08-.25-.46-.14-.39.1.16.49.22,1,.66,1.32a16.66,16.66,0,0,1-.39,1.76,3.23,3.23,0,0,1-.47-1.43c0-.26-.43-.15-.39.1a3.24,3.24,0,0,0,.71,1.77,7.94,7.94,0,0,1-.65,1.42,4.13,4.13,0,0,1-.29-1.36c0-.25-.41-.25-.4,0a4.71,4.71,0,0,0,.44,1.77,9.55,9.55,0,0,1-.92,1.2,3.4,3.4,0,0,1-.44-1.06c-.05-.25-.44-.14-.38.11a3.52,3.52,0,0,0,.54,1.24,10.4,10.4,0,0,1-.76.72c-.19.16.09.44.28.28s.52-.47.76-.71a.17.17,0,0,0,.1,0,3.23,3.23,0,0,0,1.61-.46c.22-.13,0-.48-.2-.34a3,3,0,0,1-1.14.38,11.11,11.11,0,0,0,.79-1,.18.18,0,0,0,.15.06,2.05,2.05,0,0,0,1.45-.85c.15-.21-.2-.41-.35-.21a1.57,1.57,0,0,1-1,.64,9.51,9.51,0,0,0,.7-1.39l.06-.19a.17.17,0,0,0,.19,0h0a3,3,0,0,0,1.43-1.08c.15-.2-.2-.4-.35-.2a2.47,2.47,0,0,1-1.16.88c.21-.71.34-1.43.48-2.16A.16.16,0,0,0,351.58,230.09Z" transform="translate(0.44)"/><path class="bd994dc1-bf31-4a33-a1ee-4573f250162d" d="M329.34,232.46c-.48-.9-.93-1.83-1.36-2.77-.8-1.76-2.87-5-2.87-5s8.24,4.73,12,7.62c2.68,2.06,5,4.95,5.08,8.46,0,1-4.14.24-4.57.08a15,15,0,0,1-6.72-5.76A27.1,27.1,0,0,1,329.34,232.46Z" transform="translate(0.44)"/><path class="bbce6115-5a6f-4749-975e-2700010d3489" d="M333,236.09c-.25-.05-.15-.43.1-.38a6.44,6.44,0,0,0,3-.3l-1.23-1.33a4.27,4.27,0,0,1-2.59.24c-.25-.08-.15-.47.1-.39a3.66,3.66,0,0,0,2.19-.17c-.43-.46-.86-.92-1.3-1.37l0,0a7.23,7.23,0,0,1-2.85.32c-.25,0-.25-.43,0-.4a6.77,6.77,0,0,0,2.57-.26c-.51-.52-1-1-1.57-1.52a.2.2,0,0,1-.11,0,6,6,0,0,0-.95,0,2.54,2.54,0,0,1-.81-.25c-.23-.11,0-.46.19-.34a2.1,2.1,0,0,0,.89.2l.35,0c-.56-.5-1.14-1-1.73-1.44-.21-.16.08-.44.28-.28.61.47,1.19,1,1.77,1.48a2.11,2.11,0,0,0-.13-.82.2.2,0,0,1,.38-.1,2,2,0,0,1,.08,1.22c.53.49,1.05,1,1.55,1.5a3.22,3.22,0,0,0-.23-1.18c-.1-.24.29-.34.38-.1a3.57,3.57,0,0,1,.25,1.59l0,.07c.44.45.86.9,1.28,1.35a3.13,3.13,0,0,0-.1-1.29c-.08-.24.31-.34.38-.1a3.53,3.53,0,0,1,.08,1.71.08.08,0,0,1,0,0c.45.48.89,1,1.33,1.45a2.38,2.38,0,0,0,.12-1.62.2.2,0,0,1,.39-.1,2.8,2.8,0,0,1-.21,2h0c.51.56,1,1.11,1.56,1.66.07-.5.26-1.1-.12-1.48-.18-.19.1-.47.28-.29.57.57.22,1.33.21,2a.17.17,0,0,1,0,.1c.33.35.67.7,1,1l.18-.67a1.14,1.14,0,0,0,.05-.79c-.11-.23.24-.43.35-.2.28.59-.09,1.36-.24,1.94l0,0,.83.8c.19.17-.1.45-.28.28l-.91-.88a5.44,5.44,0,0,1-3.26.27.2.2,0,0,1,.11-.38,4.89,4.89,0,0,0,2.83-.2l-1-1a7.07,7.07,0,0,1-1.5.4,14.4,14.4,0,0,1-1.74-.13.2.2,0,0,1,0-.4c.54,0,1.05.19,1.58.15a4.94,4.94,0,0,0,1.36-.34c-.55-.58-1.1-1.17-1.64-1.76A7.21,7.21,0,0,1,333,236.09Z" transform="translate(0.44)"/><path class="bbce6115-5a6f-4749-975e-2700010d3489" d="M341,221.91c-.45-.62-.92-1.23-1.4-1.83-.9-1.12-2.4-3.59-2.4-3.59s.41,7.07,1.08,10.55c.48,2.47,1.64,5,3.95,6.2.63.34,1.54-2.68,1.58-3a11.22,11.22,0,0,0-1.6-6.4C341.82,223.16,341.41,222.53,341,221.91Z" transform="translate(0.44)"/><path class="bd994dc1-bf31-4a33-a1ee-4573f250162d" d="M342,232.86a11.07,11.07,0,0,1-.33-3.16l-.07,0a5.53,5.53,0,0,1-2.57-3.11c-.08-.25.3-.35.38-.11a5.11,5.11,0,0,0,2.25,2.79,11.48,11.48,0,0,0-.11-1.76,5,5,0,0,1-2.13-1.89c-.14-.22.21-.41.34-.2a4.71,4.71,0,0,0,1.71,1.61c-.08-.52-.18-1-.3-1.51a3,3,0,0,1-1.94-1.69c-.13-.22.21-.41.35-.19a2.81,2.81,0,0,0,1.48,1.46,14,14,0,0,0-.53-1.62.23.23,0,0,1-.12,0,3.07,3.07,0,0,1-1.58-.83c-.19-.18.1-.46.28-.28a2.79,2.79,0,0,0,1.26.69A12.46,12.46,0,0,0,339,220.7c-.15-.2.2-.4.35-.19a12.86,12.86,0,0,1,1.38,2.38.38.38,0,0,0,.06-.17c0-.26.42-.15.38.1a.7.7,0,0,1-.28.47,14.48,14.48,0,0,1,.54,1.61,1.08,1.08,0,0,0,.15-.48c0-.26.41-.26.39,0a1.46,1.46,0,0,1-.42,1c.1.42.19.84.26,1.29,0,.07,0,.16,0,.24a1.07,1.07,0,0,0,.22-.54c0-.25.42-.26.4,0a1.41,1.41,0,0,1-.5,1l-.06,0c.05.55.07,1.13.08,1.7a2.21,2.21,0,0,0,.65-.86c.1-.24.44,0,.34.19a2.56,2.56,0,0,1-1,1.15h0a12.14,12.14,0,0,0,.36,3.17C342.43,233,342.05,233.1,342,232.86Z" transform="translate(0.44)"/><path class="bbce6115-5a6f-4749-975e-2700010d3489" d="M336.39,229c-.13-.76-.23-1.53-.31-2.29-.15-1.43-.85-4.23-.85-4.23s4.72,5.28,6.7,8.22c1.41,2.09,2.37,4.68,1.6,7.18-.22.68-3-.81-3.25-1a11.14,11.14,0,0,1-3.4-5.66A18.38,18.38,0,0,1,336.39,229Z" transform="translate(0.44)"/><path class="bd994dc1-bf31-4a33-a1ee-4573f250162d" d="M338.4,230.09c-.41-.27-.81-.56-1.21-.85-.2-.15,0-.5.2-.34.37.27.75.54,1.14.79a13.25,13.25,0,0,0-.41-1.62c-.08-.24.31-.35.39-.1a12.53,12.53,0,0,1,.43,1.81,2.77,2.77,0,0,0,.36-1c.07-.25.46-.14.38.1-.16.49-.21,1-.65,1.32a14.49,14.49,0,0,0,.39,1.76,3.5,3.5,0,0,0,.47-1.43c0-.26.42-.15.38.1a3.24,3.24,0,0,1-.71,1.77,8.75,8.75,0,0,0,.66,1.42,4.13,4.13,0,0,0,.29-1.36c0-.25.41-.25.39,0a4.36,4.36,0,0,1-.44,1.77,10.61,10.61,0,0,0,.92,1.2,3.18,3.18,0,0,0,.44-1.06c.06-.25.44-.14.39.11a3.54,3.54,0,0,1-.55,1.24c.25.25.49.49.76.72s-.09.44-.28.28-.51-.47-.76-.71a.15.15,0,0,1-.1,0,3.26,3.26,0,0,1-1.61-.46c-.22-.13,0-.48.2-.34a3,3,0,0,0,1.15.38,9.69,9.69,0,0,1-.8-1,.18.18,0,0,1-.15.06,2.05,2.05,0,0,1-1.44-.85c-.15-.21.19-.41.34-.21a1.57,1.57,0,0,0,1,.64,8.61,8.61,0,0,1-.7-1.39,1.07,1.07,0,0,1-.07-.19.15.15,0,0,1-.18,0h0a2.9,2.9,0,0,1-1.43-1.08c-.15-.2.19-.4.34-.2a2.52,2.52,0,0,0,1.16.88c-.21-.71-.34-1.43-.48-2.16A.16.16,0,0,1,338.4,230.09Z" transform="translate(0.44)"/><path class="bbce6115-5a6f-4749-975e-2700010d3489" d="M335.93,229c-.13-.76-.23-1.53-.31-2.29-.15-1.43-.84-4.23-.84-4.23s4.71,5.28,6.69,8.22c1.41,2.09,2.37,4.68,1.6,7.18-.21.68-3-.81-3.25-1a11.14,11.14,0,0,1-3.4-5.66C336.22,230.52,336.06,229.78,335.93,229Z" transform="translate(0.44)"/><path class="bd994dc1-bf31-4a33-a1ee-4573f250162d" d="M343,237.48a11.66,11.66,0,0,0-2-2.46s0,0,0-.06a5.53,5.53,0,0,0-.38-4c-.11-.23-.46,0-.34.2a5.11,5.11,0,0,1,.38,3.56,13.06,13.06,0,0,1-1.17-1.31,5,5,0,0,0,.17-2.86c0-.25-.44-.14-.38.11a4.53,4.53,0,0,1-.08,2.34c-.3-.42-.58-.84-.85-1.27a3,3,0,0,0,.18-2.57c-.06-.25-.44-.14-.38.11a2.82,2.82,0,0,1,0,2.08,15.48,15.48,0,0,1-.77-1.52.25.25,0,0,0,.1-.08A3.14,3.14,0,0,0,338,228a.2.2,0,0,0-.4,0,2.77,2.77,0,0,1-.4,1.38,12.41,12.41,0,0,1-.71-2.6c0-.26-.42-.15-.38.1a12.81,12.81,0,0,0,.71,2.66.44.44,0,0,1-.17-.08c-.2-.15-.4.19-.2.35a.77.77,0,0,0,.53.13,13.55,13.55,0,0,0,.77,1.52,1,1,0,0,1-.45-.24c-.19-.17-.47.11-.28.28a1.41,1.41,0,0,0,1,.39c.23.37.46.73.73,1.1l.14.19a1,1,0,0,1-.53-.22c-.2-.17-.48.12-.28.28a1.38,1.38,0,0,0,1.05.34l.06,0c.36.43.75.85,1.15,1.27a2.31,2.31,0,0,1-1.07-.16c-.24-.09-.34.29-.1.39a2.53,2.53,0,0,0,1.49.12h0a12.11,12.11,0,0,1,2,2.49C342.74,237.91,343.09,237.71,343,237.48Z" transform="translate(0.44)"/><path class="ad1da0f4-8fcb-4d48-8a8e-0965016eb900" d="M355.92,240.57v0a9.18,9.18,0,0,1-6.69,8.81,6.09,6.09,0,0,1-.71.17,8.16,8.16,0,0,1-1.72.17l-3.69,0a9.75,9.75,0,0,1-1.88-.19c-.25-.05-.49-.12-.73-.19a9.19,9.19,0,0,1-6.58-8.74h0a2.84,2.84,0,0,1,2.82-2.83h2.18l11.91,0h2.25A2.84,2.84,0,0,1,355.92,240.57Z" transform="translate(0.44)"/><path class="b5893ede-83c9-4651-bce6-a79fec00da2e" d="M291.31,248H259.76v-4.46h27.1a4.46,4.46,0,0,1,4.45,4.46Z" transform="translate(0.44)"/><path class="b6d76545-3c31-4159-a443-d7247dce9a6e" d="M259.65,248.36H195.21a3.32,3.32,0,0,1-3.24-2.58l-9.6-41.6a3.32,3.32,0,0,1,3.24-4.08h64.44a3.34,3.34,0,0,1,3.25,2.58l9.6,41.6A3.33,3.33,0,0,1,259.65,248.36Z" transform="translate(0.44)"/><path class="b5893ede-83c9-4651-bce6-a79fec00da2e" d="M224.49,225.16c0,2.56-1.66,4.64-3.71,4.64s-3.72-2.08-3.72-4.64,1.67-4.64,3.72-4.64S224.49,222.59,224.49,225.16Z" transform="translate(0.44)"/><path class="b6d76545-3c31-4159-a443-d7247dce9a6e" d="M172.64,222.94h-56.8a8.5,8.5,0,0,1-8.5-8.51V153.71a8.5,8.5,0,0,1,8.5-8.51h56.8a8.5,8.5,0,0,0-8.5,8.51v60.72A8.5,8.5,0,0,0,172.64,222.94Z" transform="translate(0.44)"/><path class="b5893ede-83c9-4651-bce6-a79fec00da2e" d="M172.74,145.2v77.74h-.1a8.5,8.5,0,0,1-8.5-8.51V153.71a8.5,8.5,0,0,1,8.5-8.51Z" transform="translate(0.44)"/><path class="b5893ede-83c9-4651-bce6-a79fec00da2e" d="M136.08,207l-7.44,33.15h-12.7l13-45.92a2.39,2.39,0,0,1,4-1.08,12,12,0,0,1,2.39,3.71A16.6,16.6,0,0,1,136.08,207Z" transform="translate(0.44)"/><path class="b6d76545-3c31-4159-a443-d7247dce9a6e" d="M158.17,248.36H107.71a9,9,0,0,1,9-9H149.2a9,9,0,0,1,9,9Z" transform="translate(0.44)"/><ellipse class="b5893ede-83c9-4651-bce6-a79fec00da2e" cx="134.19" cy="176.22" rx="3.9" ry="5.57"/><polygon class="b6d76545-3c31-4159-a443-d7247dce9a6e" points="353.7 382.72 353.7 289.59 349.56 289.59 349.56 382.72 331.5 382.72 331.5 386.97 372.46 386.97 372.46 382.72 353.7 382.72"/><rect class="bb9f8d2c-f57e-4dde-9110-024e5922280c" x="348.65" y="254.7" width="6.67" height="94.55"/><polygon class="b6d76545-3c31-4159-a443-d7247dce9a6e" points="115.24 382.72 115.24 289.59 111.1 289.59 111.1 382.72 93.04 382.72 93.04 386.97 134 386.97 134 382.72 115.24 382.72"/><rect class="bb9f8d2c-f57e-4dde-9110-024e5922280c" x="110.18" y="254.7" width="6.67" height="94.55"/><path class="aa175ff6-e76d-44ad-ab2a-7726ee7e41ed" d="M370.53,255H82.82a3.53,3.53,0,0,1-3.53-3.53h0A3.53,3.53,0,0,1,82.82,248H370.53a3.53,3.53,0,0,1,3.52,3.52h0A3.53,3.53,0,0,1,370.53,255Z" transform="translate(0.44)"/><path class="b5893ede-83c9-4651-bce6-a79fec00da2e" d="M367.64,98.79H334.92a5.3,5.3,0,0,0-5.31,5.3v28.36l6.06-9.33h32a5.3,5.3,0,0,0,5.31-5.3V104.09A5.3,5.3,0,0,0,367.64,98.79Z" transform="translate(0.44)"/><path class="aa175ff6-e76d-44ad-ab2a-7726ee7e41ed" d="M337.13,107.33h1.05v5.41c0,2.14-1.06,2.8-2.45,2.8a3.36,3.36,0,0,1-1.12-.19l.16-.85a2.62,2.62,0,0,0,.87.15c.94,0,1.49-.42,1.49-2Z" transform="translate(0.44)"/><path class="aa175ff6-e76d-44ad-ab2a-7726ee7e41ed" d="M341.22,112.87l-.84,2.54h-1.07l2.74-8.08h1.26l2.76,8.08H345l-.87-2.54Zm2.66-.82-.8-2.33c-.18-.52-.3-1-.42-1.47h0c-.12.48-.25,1-.41,1.46l-.79,2.34Z" transform="translate(0.44)"/><path class="aa175ff6-e76d-44ad-ab2a-7726ee7e41ed" d="M348.4,115.41l-2.64-8.08h1.13l1.26,4c.35,1.09.65,2.07.86,3h0c.22-.94.56-2,.92-3l1.37-4h1.11l-2.89,8.08Z" transform="translate(0.44)"/><path class="aa175ff6-e76d-44ad-ab2a-7726ee7e41ed" d="M353.94,112.87l-.84,2.54H352l2.74-8.08H356l2.76,8.08h-1.12l-.86-2.54Zm2.65-.82-.79-2.33c-.18-.52-.3-1-.42-1.47h0c-.12.48-.25,1-.41,1.46l-.79,2.34Z" transform="translate(0.44)"/><path class="b9a771cb-1b05-4268-a163-56ca1dbc4eac" d="M220.81,189.72h32.72a5.3,5.3,0,0,0,5.31-5.3V156.06l-6.06,9.33h-32a5.31,5.31,0,0,0-5.31,5.3v13.73A5.3,5.3,0,0,0,220.81,189.72Z" transform="translate(0.44)"/><path class="eefa8352-f637-4604-80ad-c36a97a29f29" d="M224.5,173.67a11.51,11.51,0,0,1,2-.16,3.32,3.32,0,0,1,2.27.67,2.19,2.19,0,0,1,.71,1.69,2.37,2.37,0,0,1-.63,1.73,3.34,3.34,0,0,1-2.47.89,3.47,3.47,0,0,1-.83-.07v3.23H224.5Zm1.05,3.89a3.38,3.38,0,0,0,.86.09c1.26,0,2-.61,2-1.73s-.76-1.58-1.91-1.58a4.2,4.2,0,0,0-1,.08Z" transform="translate(0.44)"/><path class="eefa8352-f637-4604-80ad-c36a97a29f29" d="M231.93,173.57V177h3.91v-3.38h1v8.08h-1v-3.79h-3.91v3.79h-1.05v-8.08Z" transform="translate(0.44)"/><path class="eefa8352-f637-4604-80ad-c36a97a29f29" d="M238.71,173.67a11.33,11.33,0,0,1,2-.16,3.34,3.34,0,0,1,2.27.67,2.19,2.19,0,0,1,.71,1.69,2.37,2.37,0,0,1-.63,1.73,3.34,3.34,0,0,1-2.47.89,3.61,3.61,0,0,1-.84-.07v3.23h-1Zm1,3.89a3.52,3.52,0,0,0,.87.09c1.26,0,2-.61,2-1.73s-.75-1.58-1.9-1.58a4.36,4.36,0,0,0-1,.08Z" transform="translate(0.44)"/></g></g></svg>