<?xml version="1.0" encoding="iso-8859-1"?>
<!-- Generator: Adobe Illustrator 18.0.0, SVG Export Plug-In . SVG Version: 6.00 Build 0)  -->
<!DOCTYPE svg PUBLIC "-//W3C//DTD SVG 1.1//EN" "http://www.w3.org/Graphics/SVG/1.1/DTD/svg11.dtd">
<svg version="1.1" id="Capa_1" xmlns="http://www.w3.org/2000/svg" xmlns:xlink="http://www.w3.org/1999/xlink" x="0px" y="0px"
	 viewBox="0 0 466.936 466.936" style="enable-background:new 0 0 466.936 466.936;" xml:space="preserve">
<g>
	<path style="fill:#020202;" d="M171.789,54.19h257.362v173.818H287.316v32.597h143.148c17.253,0,31.283-14.023,31.283-31.276
		V52.868c0-17.253-14.029-31.274-31.283-31.274H170.477c-17.253,0-31.284,14.021-31.284,31.274v54.688h32.596V54.19z"/>
	<path style="fill:#020202;" d="M287.316,304.549h90.944l29.659-29.653c2.824-2.832,5.968-5.107,9.239-7.098H287.316V304.549z"/>
	<path style="fill:#020202;" d="M262.869,165.649c0-18.557-15.097-33.645-33.653-33.645H116.29
		c-18.559,0-33.654,15.089-33.654,33.645v46.029H98.29c6.366,0,12.311,1.592,17.683,4.218l0.318-51.297h113.982v157.808h-91.311
		v30.766v14.896h87.761c-0.302-5.014,0.168-10.011,1.401-14.896c2.085-8.229,6.168-16.074,12.605-22.522
		c0.016-0.015,0.025-0.03,0.039-0.047c6.335-6.335,14.023-10.377,22.1-12.511V165.649z M162.249,342.652
		c0-5.81,4.71-10.506,10.504-10.506c5.794,0,10.504,4.696,10.504,10.506c0,5.809-4.71,10.521-10.504,10.521
		C166.958,353.172,162.249,348.46,162.249,342.652z"/>
	<path style="fill:#020202;" d="M98.29,232.05H20.301C9.104,232.05,0,241.155,0,252.344v147.765
		c0,11.189,9.104,20.293,20.301,20.293H98.29c11.196,0,20.301-9.104,20.301-20.293V252.344
		C118.59,241.155,109.486,232.05,98.29,232.05z M24.447,256.497h69.696v132.23H24.447V256.497z M50.676,404.548
		c0-4.759,3.852-8.61,8.627-8.61c4.743,0,8.595,3.852,8.595,8.61c0,4.759-3.852,8.627-8.595,8.627
		C54.528,413.175,50.676,409.307,50.676,404.548z"/>
	<path style="fill:#020202;" d="M425.205,292.182l-94.152,94.143l-38.429-38.438c-9.534-9.55-25.021-9.55-34.57,0
		c-9.549,9.55-9.549,25.02,0,34.57l55.713,55.721c4.585,4.585,10.799,7.163,17.286,7.163c6.485,0,12.701-2.578,17.284-7.163
		l111.436-111.428c9.551-9.549,9.551-25.021,0-34.569C450.224,282.633,434.754,282.633,425.205,292.182z"/>
</g>
<g>
</g>
<g>
</g>
<g>
</g>
<g>
</g>
<g>
</g>
<g>
</g>
<g>
</g>
<g>
</g>
<g>
</g>
<g>
</g>
<g>
</g>
<g>
</g>
<g>
</g>
<g>
</g>
<g>
</g>
</svg>
