<svg id="Layer_1" enable-background="new 0 0 256 256" height="512" viewBox="0 0 256 256" width="512" xmlns="http://www.w3.org/2000/svg"><g><g><g><path d="m32.035 181.78c-7.535 0-13.665-6.13-13.665-13.665v-123.776c0-7.535 6.13-13.665 13.665-13.665h191.931c7.535 0 13.665 6.13 13.665 13.665v123.776c0 7.535-6.13 13.665-13.665 13.665z" fill="#63bce7"/></g></g><g><g><path d="m229.221 168.115c0 2.891-2.365 5.256-5.256 5.256h-191.93c-2.891 0-5.256-2.365-5.256-5.256v-123.777c0-2.891 2.365-5.256 5.256-5.256h191.931c2.891 0 5.256 2.365 5.256 5.256v123.777z" fill="#f46275"/></g></g><g><g><path d="m64.577 100.445h126.049v13.771h-126.049z" fill="#63bce7"/></g></g><g><g><circle cx="127.601" cy="107.33" fill="#f8af23" r="39.195"/></g></g><g><g><path d="m35.22 39.079v134.293h-3.185c-2.891 0-5.256-2.365-5.256-5.256v-123.781c0-2.891 2.365-5.256 5.256-5.256z" fill="#f43075"/></g></g><g><g><path d="m220.78 173.372v-134.293h3.185c2.891 0 5.256 2.365 5.256 5.256v123.782c0 2.891-2.365 5.256-5.256 5.256h-3.185z" fill="#f48875"/></g></g><g><g><path d="m89.809 203.938h76.383v9.197h-76.383z" fill="#63bce7"/></g></g><g><g><path d="m100.67 181.78h54.659v22.158h-54.659z" fill="#f8af23"/></g></g><g><g><path d="m89.809 203.939h8.441v9.197h-8.441z" fill="#6377e7"/></g></g><g><g><path d="m155.33 181.78h-54.659v.001h-.001v22.158h8.441v-13.718h46.219z" fill="#f87023"/></g></g><g><g><circle cx="128" cy="107.33" fill="#f46275" r="28.695"/></g></g><g><g><g><path d="m45.706 49.905c0 2.467-2 4.467-4.467 4.467-2.467 0-4.467-2-4.467-4.467 0-2.467 2-4.467 4.467-4.467 2.466-.001 4.467 1.999 4.467 4.467z" fill="#f46275"/></g></g><g><g><path d="m59.465 49.905c0 2.467-2 4.467-4.467 4.467-2.467 0-4.467-2-4.467-4.467 0-2.467 2-4.467 4.467-4.467 2.467-.001 4.467 1.999 4.467 4.467z" fill="#f46275"/></g></g><g><g><path d="m73.224 49.905c0 2.467-2 4.467-4.467 4.467-2.467 0-4.467-2-4.467-4.467 0-2.467 2-4.467 4.467-4.467 2.467-.001 4.467 1.999 4.467 4.467z" fill="#f46275"/></g></g></g><g><g><path d="m156.695 107.329c0 3.93-.79 7.68-2.22 11.09h-52.95c-1.43-3.41-2.22-7.16-2.22-11.09s.79-7.68 2.22-11.09h52.95c1.43 3.41 2.22 7.16 2.22 11.09z" fill="#63bce7"/></g></g><g><g><g><path d="m85.735 149.701v-11.247h-5.719c-.163-.448-.348-.886-.548-1.314l4.047-4.047-7.953-7.953-4.047 4.047c-.429-.2-.866-.385-1.314-.548v-5.719h-11.248v5.719c-.448.163-.885.348-1.314.548l-4.047-4.047-7.953 7.953 4.047 4.047c-.2.429-.385.866-.548 1.314h-5.719v11.247h5.719c.163.448.348.885.548 1.314l-4.047 4.047 7.953 7.953 4.047-4.047c.429.2.866.385 1.314.548v5.719h11.247v-5.719c.448-.163.886-.348 1.314-.548l4.047 4.047 7.953-7.953-4.047-4.047c.2-.429.385-.866.548-1.314z" fill="#f8af23"/></g></g><g><g><circle cx="64.577" cy="144.078" fill="#f46275" r="7.161"/></g></g></g><g><g><g><path d="m115.308 101.424h3.659c.447 0 .87.188 1.269.564.399.377.599.832.599 1.367 0 .201-.07.371-.213.511s-.3.209-.473.209c-.239 0-.404-.055-.493-.163s-.175-.311-.256-.606-.261-.443-.54-.443h-3.478c-.168 0-.251.055-.251.162-.005.068.029.147.102.236l5.225 6.661c.252.323.377.669.377 1.036 0 .419-.151.786-.455 1.104-.305.317-.643.477-1.017.477h-3.788c-.502 0-.938-.191-1.31-.573s-.556-.801-.556-1.259c0-.523.245-.786.735-.786.189 0 .352.068.485.205s.201.297.201.481c0 .15.051.275.154.376s.232.15.389.15h3.496c.15 0 .226-.06.226-.179.005-.057-.029-.13-.103-.219l-5.216-6.661c-.245-.318-.368-.663-.368-1.037 0-.435.156-.812.469-1.134.314-.319.691-.479 1.131-.479z"/></g></g><g><g><path d="m130.445 102.846h-4.968v3.421h2.141c.189 0 .354.069.493.209.14.14.209.304.209.493 0 .201-.068.371-.204.511-.137.139-.303.209-.498.209h-2.141v3.445h4.984c.189 0 .354.068.493.205s.209.303.209.498-.07.36-.213.497-.311.205-.506.205h-6.373v-11.115h6.373c.195 0 .363.071.506.213.143.143.213.312.213.507 0 .189-.07.354-.213.493s-.31.209-.505.209z"/></g></g><g><g><path d="m139.62 102.452 1.547 3.153c.218.43.326.896.326 1.396 0 .491-.108.954-.326 1.389l-1.547 3.12c-.329.686-.887 1.028-1.673 1.028-.374 0-.71-.098-1.008-.293-.299-.195-.522-.44-.673-.735l-1.556-3.12c-.207-.407-.31-.87-.31-1.389s.103-.983.31-1.396l1.556-3.153c.351-.686.911-1.028 1.681-1.028.78 0 1.338.343 1.673 1.028zm-2.142.704-1.455 2.961c-.134.295-.2.585-.2.869 0 .307.066.6.2.879l1.497 2.994c.078.184.221.275.427.275.179 0 .314-.092.41-.275l1.505-2.994c.14-.296.209-.589.209-.879 0-.307-.069-.597-.209-.869l-1.472-2.961c-.095-.218-.243-.326-.443-.326-.201-.001-.357.108-.469.326z"/></g></g></g><g><g><path d="m214.693 180.446c4.02 4.02 4.02 10.538 0 14.558-4.02 4.02-10.538 4.02-14.558 0l-31.821-31.741c-4.02-4.02-4.02-10.538 0-14.558 4.02-4.02 10.538-4.02 14.558 0z" fill="#f8af23"/></g></g><g><g><path d="m211.635 197.117c-1.335.599-2.775.904-4.215.904-2.638 0-5.277-1.009-7.284-3.017l-31.818-31.744c-4.026-4.015-4.026-10.532 0-14.558 2.008-2.008 4.646-3.006 7.274-3.006 1.44 0 2.891.294 4.226.893-1.114.505-2.144 1.198-3.059 2.113-4.026 4.026-4.026 10.543 0 14.558l31.818 31.744c.914.904 1.944 1.609 3.058 2.113z" fill="#f87023"/></g></g><g><g><g><path d="m223.966 29.174h-191.932c-8.361 0-15.164 6.803-15.164 15.165v123.776c0 8.362 6.803 15.165 15.164 15.165h67.137v19.158h-9.362c-.828 0-1.5.671-1.5 1.5v7.699h-44.233c-.828 0-1.5.671-1.5 1.5s.672 1.5 1.5 1.5h168.859c.828 0 1.5-.671 1.5-1.5s-.672-1.5-1.5-1.5h-45.244v-7.699c0-.829-.672-1.5-1.5-1.5h-9.362v-19.158h29.428l12.817 12.784c2.228 2.228 5.189 3.455 8.34 3.455s6.111-1.227 8.339-3.455 3.455-5.189 3.455-8.339c0-1.549-.3-3.052-.867-4.445h5.625c8.361 0 15.164-6.803 15.164-15.165v-123.776c0-8.362-6.803-15.165-15.164-15.165zm-59.275 182.461h-73.382v-6.197h9.362 54.658 9.362zm-10.862-9.197h-51.658v-19.158h51.658zm59.803-8.495c-1.661 1.661-3.869 2.576-6.218 2.576s-4.558-.915-6.22-2.577l-21.654-21.599c-.02-.021-.04-.041-.06-.06l-10.106-10.081c-3.428-3.429-3.428-9.008 0-12.437 1.661-1.661 3.87-2.576 6.219-2.576s4.557.915 6.219 2.577l31.82 31.74c1.661 1.661 2.576 3.87 2.576 6.218s-.915 4.558-2.576 6.219zm-29.7-46.299c-2.228-2.228-5.188-3.455-8.339-3.455-2.644 0-5.149.874-7.205 2.469l-11.312-11.312c5.105-5.368 8.767-12.118 10.347-19.63h23.202c.828 0 1.5-.671 1.5-1.5v-13.771c0-.829-.672-1.5-1.5-1.5h-23.202c-3.876-18.43-20.257-32.31-39.822-32.31s-35.946 13.88-39.822 32.31h-23.202c-.828 0-1.5.671-1.5 1.5v13.771c0 .829.672 1.5 1.5 1.5h23.202c3.876 18.43 20.257 32.31 39.822 32.31 10.513 0 20.108-4.008 27.337-10.575l11.329 11.329c-3.574 4.622-3.252 11.305.986 15.544l7.566 7.546h-142.785c-2.07 0-3.755-1.685-3.755-3.755v-123.777c0-2.071 1.685-3.755 3.755-3.755h191.932c2.07 0 3.755 1.685 3.755 3.755v123.777c0 2.071-1.685 3.755-3.755 3.755h-15.746zm-56.33-2.618c-20.785 0-37.695-16.91-37.695-37.695 0-20.786 16.91-37.696 37.695-37.696s37.695 16.91 37.695 37.696c0 20.785-16.91 37.695-37.695 37.695zm40.327-43.081h21.197v10.771h-21.196c.234-1.764.367-3.559.367-5.385 0-1.827-.133-3.623-.368-5.386zm-80.655 10.771h-21.197v-10.771h21.196c-.234 1.764-.367 3.559-.367 5.386 0 1.826.133 3.621.368 5.385zm148.856 55.399c0 6.708-5.457 12.165-12.164 12.165h-7.406c-.253-.309-.521-.608-.807-.895l-.001-.001-4.525-4.513h12.739c3.725 0 6.755-3.03 6.755-6.755v-123.778c0-3.725-3.03-6.755-6.755-6.755h-191.932c-3.725 0-6.755 3.03-6.755 6.755v123.777c0 3.725 3.03 6.755 6.755 6.755h145.793l5.423 5.409h-27.921-54.658-68.637c-6.707 0-12.164-5.457-12.164-12.165v-123.775c0-6.708 5.457-12.165 12.164-12.165h191.932c6.707 0 12.164 5.457 12.164 12.165z" fill="#231f20"/></g></g><g><g><path d="m35.768 213.137c0-.829-.672-1.5-1.5-1.5h-8.344c-.828 0-1.5.671-1.5 1.5s.672 1.5 1.5 1.5h8.344c.828 0 1.5-.672 1.5-1.5z" fill="#231f20"/></g></g><g><g><path d="m230.076 211.637h-8.346c-.828 0-1.5.671-1.5 1.5s.672 1.5 1.5 1.5h8.346c.828 0 1.5-.671 1.5-1.5s-.672-1.5-1.5-1.5z" fill="#231f20"/></g></g><g><g><path d="m202.869 223.826h-148.726c-.828 0-1.5.671-1.5 1.5s.672 1.5 1.5 1.5h148.727c.828 0 1.5-.671 1.5-1.5s-.673-1.5-1.501-1.5z" fill="#231f20"/></g></g><g><g><path d="m45.133 223.826h-8.344c-.828 0-1.5.671-1.5 1.5s.672 1.5 1.5 1.5h8.344c.828 0 1.5-.671 1.5-1.5s-.672-1.5-1.5-1.5z" fill="#231f20"/></g></g><g><g><path d="m220.428 223.826h-8.346c-.828 0-1.5.671-1.5 1.5s.672 1.5 1.5 1.5h8.346c.828 0 1.5-.671 1.5-1.5s-.672-1.5-1.5-1.5z" fill="#231f20"/></g></g><g><g><path d="m41.238 55.872c3.29 0 5.967-2.677 5.967-5.967s-2.677-5.967-5.967-5.967c-3.291 0-5.968 2.677-5.968 5.967s2.677 5.967 5.968 5.967zm0-8.934c1.636 0 2.967 1.331 2.967 2.967s-1.331 2.967-2.967 2.967c-1.637 0-2.968-1.331-2.968-2.967s1.332-2.967 2.968-2.967z" fill="#231f20"/></g></g><g><g><path d="m54.997 55.872c3.291 0 5.968-2.677 5.968-5.967s-2.677-5.967-5.968-5.967c-3.29 0-5.967 2.677-5.967 5.967s2.677 5.967 5.967 5.967zm0-8.934c1.637 0 2.968 1.331 2.968 2.967s-1.331 2.967-2.968 2.967c-1.636 0-2.967-1.331-2.967-2.967s1.331-2.967 2.967-2.967z" fill="#231f20"/></g></g><g><g><path d="m68.757 55.872c3.291 0 5.968-2.677 5.968-5.967s-2.677-5.967-5.968-5.967c-3.29 0-5.967 2.677-5.967 5.967s2.677 5.967 5.967 5.967zm0-8.934c1.637 0 2.968 1.331 2.968 2.967s-1.331 2.967-2.968 2.967c-1.636 0-2.967-1.331-2.967-2.967s1.331-2.967 2.967-2.967z" fill="#231f20"/></g></g><g><g><path d="m217.708 58.644h-180.937c-.828 0-1.5.671-1.5 1.5s.672 1.5 1.5 1.5h180.938c.828 0 1.5-.671 1.5-1.5s-.673-1.5-1.501-1.5z" fill="#231f20"/></g></g><g><g><path d="m57.453 122.919v3.961l-2.801-2.801c-.586-.586-1.535-.586-2.121 0l-7.953 7.953c-.281.281-.439.663-.439 1.061s.158.779.439 1.061l2.802 2.801h-3.962c-.828 0-1.5.671-1.5 1.5v11.247c0 .829.672 1.5 1.5 1.5h3.961l-2.801 2.801c-.281.281-.439.663-.439 1.061s.158.779.439 1.061l7.953 7.953c.586.586 1.535.586 2.121 0l2.801-2.801v3.961c0 .829.672 1.5 1.5 1.5h11.247c.828 0 1.5-.671 1.5-1.5v-3.961l2.801 2.801c.586.586 1.535.586 2.121 0l7.953-7.953c.586-.585.586-1.535 0-2.121l-2.8-2.801h3.96c.828 0 1.5-.671 1.5-1.5v-11.247c0-.829-.672-1.5-1.5-1.5h-3.961l2.801-2.801c.586-.586.586-1.536 0-2.121l-7.953-7.953c-.586-.586-1.535-.586-2.121 0l-2.801 2.799v-3.961c0-.829-.672-1.5-1.5-1.5h-11.247c-.828 0-1.5.672-1.5 1.5zm3 5.72v-4.219h8.247v4.219c0 .631.395 1.194.987 1.41.406.148.804.316 1.192.498.571.268 1.25.148 1.695-.298l2.986-2.986 5.832 5.832-2.986 2.987c-.446.446-.565 1.124-.299 1.695.182.389.35.786.498 1.192.215.593.778.987 1.409.987h4.22v8.247h-4.22c-.631 0-1.193.394-1.409.987-.148.406-.316.803-.498 1.192-.267.572-.147 1.249.299 1.695l2.986 2.987-5.832 5.832-2.986-2.986c-.446-.446-1.125-.567-1.695-.298-.39.182-.787.35-1.194.498-.592.216-.985.779-.985 1.409v4.219h-8.247v-4.219c0-.63-.394-1.193-.985-1.409-.408-.148-.805-.317-1.195-.499-.572-.265-1.249-.147-1.694.299l-2.986 2.986-5.832-5.832 2.987-2.987c.446-.446.565-1.124.299-1.695-.182-.389-.351-.786-.499-1.192-.216-.593-.778-.987-1.409-.987h-4.22v-8.247h4.22c.631 0 1.194-.395 1.409-.987.148-.407.317-.803.499-1.192.267-.572.147-1.25-.299-1.695l-2.987-2.987 5.832-5.832 2.986 2.986c.444.446 1.121.564 1.694.299.39-.182.786-.351 1.193-.499.593-.216.987-.779.987-1.41z" fill="#231f20"/></g></g><g><g><path d="m64.577 152.739c4.775 0 8.661-3.885 8.661-8.661s-3.886-8.662-8.661-8.662-8.661 3.886-8.661 8.662 3.886 8.661 8.661 8.661zm0-14.322c3.121 0 5.661 2.54 5.661 5.662s-2.54 5.661-5.661 5.661-5.661-2.54-5.661-5.661c0-3.123 2.54-5.662 5.661-5.662z" fill="#231f20"/></g></g><g><g><path d="m128 77.135c-16.649 0-30.195 13.545-30.195 30.195s13.546 30.195 30.195 30.195 30.195-13.545 30.195-30.195-13.546-30.195-30.195-30.195zm0 3c10.453 0 19.542 5.932 24.093 14.604h-48.186c4.551-8.672 13.64-14.604 24.093-14.604zm-25.443 17.604h50.887c1.129 2.985 1.752 6.216 1.752 9.592 0 3.374-.622 6.604-1.751 9.588h-50.889c-1.128-2.984-1.751-6.214-1.751-9.588 0-3.376.623-6.607 1.752-9.592zm25.443 36.787c-10.455 0-19.545-5.934-24.095-14.607h48.189c-4.549 8.673-13.639 14.607-24.094 14.607z" fill="#231f20"/></g></g></g></g></svg>